<?xml version="1.0" encoding="UTF-8"?>
<!DOCTYPE svg PUBLIC "-//W3C//DTD SVG 1.1//EN" "http://www.w3.org/Graphics/SVG/1.1/DTD/svg11.dtd">
<!-- Creator: CorelDRAW -->
<svg xmlns="http://www.w3.org/2000/svg" xml:space="preserve" width="8.5in" height="11in" version="1.1" style="shape-rendering:geometricPrecision; text-rendering:geometricPrecision; image-rendering:optimizeQuality; fill-rule:evenodd; clip-rule:evenodd"
viewBox="0 0 8500 11000"
 xmlns:xlink="http://www.w3.org/1999/xlink">
 <defs>
  <style type="text/css">
   <![CDATA[
    .fil1 {fill:black}
    .fil2 {fill:#00923F}
    .fil13 {fill:#28166F}
    .fil11 {fill:#464341}
    .fil7 {fill:#609FC0}
    .fil9 {fill:#644F4E}
    .fil0 {fill:#75C5F0}
    .fil3 {fill:#DA251D}
    .fil5 {fill:#FDF500}
    .fil6 {fill:#FEFEFE}
    .fil4 {fill:yellow}
    .fil12 {fill:white}
    .fil10 {fill:black;fill-rule:nonzero}
    .fil14 {fill:white;fill-rule:nonzero}
    .fil8 {fill:url(#id0)}
   ]]>
  </style>
  <linearGradient id="id0" gradientUnits="userSpaceOnUse" x1="4051.35" y1="5572.19" x2="4046.19" y2="6114.55">
   <stop offset="0" style="stop-opacity:1; stop-color:#28166F"/>
   <stop offset="1" style="stop-opacity:1; stop-color:#028CD7"/>
  </linearGradient>
 </defs>
 <g id="Layer_x0020_1">
  <metadata id="CorelCorpID_0Corel-Layer"/>
  <g id="Kabupaten_x0020_Lampung_x0020_Selatan_x0020__x005b_koleksilogo.com_x005d_.cdr">
   <path class="fil0" d="M3558 6155c36,124 97,238 193,327 4,-7 7,-14 11,-21l6 -12 10 9c128,132 295,189 478,189 182,0 349,-57 478,-189l9 -9 6 12c4,7 8,14 11,21 91,-85 151,-191 188,-308 -3,-13 -4,-24 -4,-49 -1,-7 0,-19 -1,-26 -2,-9 -6,-8 -4,-20 5,-19 17,-8 11,-32 -3,-14 -5,-29 -6,-42 -1,-13 2,-35 -3,-39 -2,-24 6,-19 8,-29 3,-2 2,0 5,-4 -8,-32 -12,-54 -9,-87 1,-7 -12,-24 9,-35 -3,-26 -17,-70 -10,-93 2,-7 -2,-3 -2,-14 -1,-19 16,-14 9,-29l-3 -19c-4,-32 -8,-37 -4,-67 0,-6 0,0 -1,-6 -2,-14 2,-18 10,-25 0,-16 -8,-46 -10,-66 -1,-6 -2,-12 -2,-18 0,-11 2,-5 1,-17 -2,-26 8,-14 10,-30 -2,-18 -14,-103 -10,-111 6,-15 11,0 7,-27 -4,-22 -6,-44 -8,-66 0,-6 0,-13 -1,-18 -7,-35 10,-6 7,-43 -2,-23 -4,-45 -6,-68 -1,-15 -9,-19 -6,-31 3,-12 14,-6 13,-24 -1,-23 -4,-46 -5,-68 -3,-30 -5,-18 -7,-30 -3,-12 7,-16 13,-23 0,-8 -4,-67 -12,-98 -38,-105 -94,-200 -177,-277 -3,7 -7,14 -11,22l-6 11 -9 -9c-129,-132 -296,-189 -478,-189 -183,0 -350,57 -478,189l-10 9 -6 -11c-4,-8 -7,-15 -11,-22 -94,88 -155,199 -192,321 17,-18 52,-45 72,-51 19,94 7,182 -45,237 7,-6 35,-26 47,-28 6,43 11,88 4,133 -5,30 -12,54 -28,79 -5,7 -12,15 -15,21 10,-5 26,-19 39,-20 13,39 10,125 -8,172 -8,23 -16,29 -23,43 -4,-1 26,-15 42,-17 4,48 15,82 -3,136 -5,14 -12,25 -16,36 -3,2 -21,25 -27,31 -14,12 -22,15 -25,19l0 0 3 8c14,-9 35,-25 57,-31 4,27 8,47 8,76 -2,39 -13,49 -21,74l12 -4c5,34 7,66 5,101l-2 17c-2,11 -4,21 -8,32 -3,10 -8,18 -11,28l16 -6c5,26 9,54 7,82 -7,54 -32,92 -75,119 -2,1 -4,3 -6,4z"/>
   <path class="fil1" d="M3627 5642c-4,2 -8,4 -12,6l-12 6 0 -18 501 -436 67 0 20 26 109 -72 52 -1 600 429 0 5c-1,1 -1,1 -1,2l0 0 0 0c-1,11 -1,21 0,31 0,5 1,10 2,15 1,6 2,13 3,20l3 18c2,5 3,11 0,16 -4,7 -10,5 -9,15 0,4 0,3 1,6 2,3 2,7 1,10 -4,13 -1,34 2,47 2,14 6,29 8,43l0 5 -4 3c-8,4 -9,8 -7,16l2 10 -1325 -35 -1 -6c0,-5 -1,-10 -2,-15l-18 5 5 -14c3,-8 7,-16 10,-24 8,-16 10,-29 11,-47 0,-14 -1,-27 -2,-41 -1,-8 -3,-17 -4,-25z"/>
   <path class="fil2" d="M4943 5836c-2,-8 -3,-18 11,-25 -3,-26 -17,-70 -10,-93 2,-7 -2,-3 -2,-14 -1,-19 16,-14 9,-29l-3 -19c-4,-32 -8,-37 -4,-67 0,-2 0,-2 0,-3l-594 -425 -47 0 -113 76 -23 -29 -60 0 -496 432 0 1c7,-4 15,-7 22,-9 4,27 8,47 8,76 -2,39 -13,49 -21,74l12 -4c1,8 2,16 3,24l1308 34z"/>
   <path class="fil1" d="M4800 6837l-3 3 -5 -5 -4 -3c-20,-20 -40,-39 -59,-58l-4 -3c-145,74 -313,115 -470,115 -158,0 -326,-41 -471,-115l-4 3c-19,19 -39,38 -59,58l-4 3 -5 5 -3 -3 -16 -13c-185,-157 -294,-356 -337,-596l-3 -21c-54,-43 -65,-98 -50,-188 10,1 24,11 35,15 -8,-13 -16,-19 -24,-35 -27,-50 -18,-91 -11,-141 61,17 116,80 138,139 4,9 7,21 11,28l-1 -126c-59,-21 -94,-37 -125,-76 -45,-56 -28,-112 -24,-163 35,8 80,47 95,66 20,26 47,70 54,104l-2 -107c-1,-3 -51,-20 -72,-33 -89,-53 -88,-125 -76,-218 36,11 78,46 95,68 46,62 39,78 53,107l0 -101c-7,-5 -45,-16 -76,-38 -23,-16 -40,-33 -54,-59 -14,-25 -23,-54 -25,-87 -1,-22 0,-88 8,-104 37,13 75,51 93,79 12,18 21,34 30,55l23 64 -1 -134c-43,-14 -87,-40 -108,-65 -36,-43 -39,-66 -47,-114 0,-3 0,-3 -1,-6l-1 -3 0 -52 7 -60c16,4 34,20 46,26 -54,-65 -59,-132 -43,-235 35,11 75,54 92,80 24,36 39,74 52,120l-1 -256c-26,13 -51,32 -71,49l-20 18 4 -27c43,-239 152,-439 337,-596l16 -12 3 -4 5 5 4 4c20,19 40,38 59,57l4 3c145,-74 313,-115 471,-115 157,0 325,41 470,115l4 -3c19,-19 39,-38 59,-57l4 -4 5 -5 3 4 16 12c178,151 285,342 331,569 7,3 12,8 14,11 6,6 12,17 10,29 -5,24 -6,49 -8,73 -5,62 15,27 6,65 -4,19 -5,56 -7,76 -1,20 -3,16 5,31 6,13 1,18 0,32 -2,24 -5,51 -7,74 -1,32 17,-2 11,66 -2,23 -8,53 -8,73 17,18 16,24 13,61 -2,23 -6,42 -11,64 17,20 19,23 16,62 -2,25 -9,44 -12,66 33,14 13,89 5,122 8,12 20,9 18,59 -1,25 -6,46 -14,66 8,13 21,8 21,59 -1,33 -9,42 -14,68 15,24 18,2 18,61 0,29 -8,42 -15,64 11,8 13,14 22,26l0 13c-6,7 -2,18 -2,30 -2,40 -23,74 -48,100 -2,2 -5,4 -7,7l0 0c-43,240 -152,439 -337,596l-16 13zm-1420 -611c22,18 48,36 75,47l-2 -14c-10,-6 -29,-11 -41,-16 -11,-6 -22,-11 -32,-17zm99 55c7,2 14,3 21,3 2,-37 15,-78 29,-114 -13,7 -27,11 -50,20 -2,16 0,39 0,56 0,12 0,20 0,26l0 0 0 0c0,1 0,3 0,4l0 5zm55 -123c1,-3 2,-5 3,-8l11 -25 6 21c18,-12 33,-26 43,-37 34,-40 34,-83 27,-144 -14,-3 -31,18 -39,26 -17,17 -38,20 -58,52 -24,37 -41,82 -46,135 18,-3 36,-11 53,-20zm23 -3c36,124 97,238 193,327 4,-7 7,-14 11,-21l6 -12 10 9c128,132 295,189 478,189 182,0 349,-57 478,-189l9 -9 6 12c4,7 7,14 11,21 91,-85 150,-191 188,-308 -3,-13 -4,-24 -4,-49 -1,-7 0,-19 -1,-26 -2,-9 -6,-8 -4,-20 4,-19 17,-8 11,-32 -3,-14 -5,-29 -6,-42 -2,-13 2,-35 -3,-39 -2,-24 6,-19 8,-29 3,-2 2,0 5,-4 -8,-32 -12,-54 -9,-87 1,-7 -12,-24 9,-35 -3,-26 -17,-70 -10,-93 2,-7 -2,-3 -2,-14 -1,-19 16,-14 9,-29l-3 -19c-4,-32 -8,-37 -4,-67 0,-6 0,0 -1,-6 -2,-14 2,-18 10,-25 0,-16 -9,-46 -11,-66 0,-6 -1,-12 -1,-18 0,-11 2,-5 1,-17 -2,-26 8,-14 10,-30 -2,-18 -14,-103 -10,-111 6,-15 11,0 7,-27 -4,-22 -7,-44 -8,-66 0,-6 0,-13 -1,-18 -7,-35 10,-6 7,-43 -2,-23 -4,-45 -6,-68 -1,-15 -10,-19 -6,-31 3,-12 14,-6 13,-24 -1,-23 -4,-46 -5,-68 -3,-30 -5,-18 -7,-30 -3,-12 7,-16 13,-23 0,-8 -4,-67 -12,-98 -38,-105 -94,-200 -177,-277 -4,7 -7,14 -11,22l-6 11 -9 -9c-129,-132 -296,-189 -478,-189 -183,0 -350,57 -478,189l-10 9 -6 -11c-4,-8 -7,-15 -11,-22 -94,88 -155,199 -192,321 17,-18 52,-45 72,-51 18,94 7,182 -45,237 6,-6 35,-26 47,-28 6,43 11,88 4,133 -5,30 -12,54 -28,79 -5,7 -12,15 -15,21 10,-5 26,-19 39,-20 13,39 10,125 -8,172 -9,23 -17,29 -24,43 -3,-1 27,-15 43,-17 4,48 15,82 -3,136 -5,14 -13,25 -16,36 -3,2 -21,25 -28,31 -13,12 -21,15 -24,19l0 0c-31,18 -62,35 -97,42l1 131 7 -23c6,-21 14,-43 24,-62 18,-35 39,-55 68,-80 14,-9 35,-25 57,-31 4,27 8,47 8,76 -2,39 -13,49 -21,74l12 -4c5,34 7,66 5,101l-2 17c-2,11 -4,21 -8,32 -3,10 -8,18 -11,28l16 -6c5,26 9,54 7,82 -7,54 -33,92 -75,119 -2,1 -4,3 -6,4zm1396 -2c0,-1 0,-1 1,-2l7 -26 11 25c17,41 34,89 37,134 47,-2 94,-36 128,-65l20 -18 -2 13c27,-29 46,-63 44,-108 -7,-1 -16,7 -24,10 -56,22 -84,-5 -88,-5 -10,2 -20,10 -31,14 -12,4 -24,7 -37,8 -22,2 -58,-3 -68,-18 -1,9 0,23 2,38zm197 -1372c1,5 2,10 3,16l3 21c12,-13 5,-29 -6,-37zm4 40l-17 -15c-8,-6 -16,-13 -24,-19 -1,1 -1,2 -3,3 -2,-3 -5,-8 -9,-12 -15,-10 -31,-19 -47,-26 -30,3 -43,33 -49,39 -1,-1 -2,-1 -4,-2 -4,16 -8,32 -14,47 10,2 21,2 32,0 23,-4 32,-13 48,-18 14,10 19,18 41,19 19,0 36,-7 46,-16zm-117 -75c-10,-3 -19,-5 -28,-5 -1,12 -3,25 -5,38l0 0c7,-17 19,-28 33,-33zm-53 99c-4,10 -8,20 -12,30l-11 25 -7 -26c-1,-1 -1,-1 -1,-2l3 41c23,-7 25,-6 47,-2 20,-37 68,-56 107,-4 22,-9 13,-12 43,-5l6 -73c-34,24 -62,21 -94,0 -19,9 -31,15 -55,17 -11,1 -19,1 -26,-1zm-1433 44l-3 11 -2 -4c-8,12 -15,25 -22,39 -22,45 -38,105 -47,161 47,-8 100,-43 126,-86 14,-23 21,-51 24,-82 2,-24 2,-90 -6,-101 -17,7 -46,33 -57,45 -4,6 -9,11 -13,17zm-9 -2l-5 -12c-17,-41 -34,-89 -37,-134 -11,0 -21,3 -32,6l2 332c8,-31 13,-59 23,-89 9,-30 20,-55 33,-80l16 -23zm-231 1145c20,7 39,22 54,33 19,16 27,25 43,47 22,31 42,87 44,135 -45,-10 -96,-46 -115,-70 -31,-39 -41,-86 -26,-145zm1775 68c-100,62 -166,-7 -128,-33 22,-15 50,-7 64,-5 11,-19 20,-35 46,-40 28,-4 52,11 60,26 25,-1 38,-3 56,12 23,19 21,28 6,39 -14,9 -32,15 -51,17 -31,1 -36,-9 -53,-16zm-1700 -30c10,3 22,10 33,15 10,5 22,8 34,13l1 95c-9,-18 -9,-33 -27,-67 -17,-32 -34,-44 -41,-56zm93 65c-2,-13 -3,-75 -1,-87l45 -17c-2,6 -36,52 -44,104zm1700 -90c-6,-2 -13,-5 -21,-6 -8,-2 -20,1 -26,-2 -4,-2 -15,-17 -36,-22 -38,-10 -67,13 -78,36 -24,-4 -36,-2 -58,4 -6,-15 -11,-55 -9,-74 15,15 25,23 54,24 24,0 48,-7 67,-16 27,-14 11,9 60,8 31,-1 41,-11 62,-21 1,21 -3,56 -15,69zm-159 -108c12,-33 55,-58 91,-29 5,3 13,15 17,15 10,2 -5,-5 29,2 18,4 36,17 37,35 -2,13 -48,36 -85,25 -13,-3 -18,-10 -26,-13 -25,17 -85,37 -115,13 -31,-25 -23,-46 20,-51 18,-3 17,-1 32,3zm-1710 -65c81,28 141,130 142,215 -47,-12 -93,-45 -115,-70 -35,-40 -35,-85 -27,-145zm1706 53c-24,-4 -36,1 -57,6 -6,-22 -13,-60 -10,-83 13,8 17,26 52,28 24,2 50,-5 68,-14 28,-14 11,9 61,7 30,-1 41,-11 60,-22 1,14 0,28 -3,41 -2,12 -7,24 -9,34 -21,-4 -25,-11 -50,-9 -23,-40 -96,-32 -112,12zm-1537 111c7,-49 27,-107 49,-145 20,-35 61,-88 95,-99 11,52 5,129 -22,166 -26,35 -80,70 -122,78zm-2 -42l-1 -120c8,-5 25,-9 35,-13 12,-4 22,-10 34,-14 -7,16 -32,39 -55,106 -3,11 -9,34 -13,41zm1604 -149c-23,11 -40,23 -74,22 -35,0 -38,-15 -49,-24 -21,-16 0,-28 20,-33 23,-5 20,-4 40,1 14,-42 72,-61 106,-11 9,-4 12,-8 22,-3 14,7 16,6 23,9 53,27 -20,67 -67,51 -10,-4 -14,-9 -21,-12zm-1771 -171c11,1 46,26 53,32 17,14 30,28 43,47 22,33 43,87 46,136 -38,-8 -90,-38 -116,-68 -31,-35 -38,-90 -26,-147zm1859 122c-22,-5 -17,-11 -43,-8 -10,-10 -10,-12 -23,-20 -35,-19 -68,-1 -89,30 -26,0 -31,4 -54,7 -4,-28 -12,-51 -10,-83 21,8 20,22 51,25 23,3 49,-4 66,-13 26,-13 10,10 59,8 28,-1 39,-11 57,-21 3,21 -3,60 -14,75zm-1687 64c7,-62 28,-114 63,-157 16,-19 55,-50 79,-57 16,30 7,109 -25,146 -21,24 -71,60 -117,68zm1535 -175c6,-27 45,-56 82,-32 14,9 13,14 23,22 6,-2 13,-10 23,-4 10,7 -8,-2 20,11 15,7 25,23 7,35 -12,8 -27,15 -46,16 -25,1 -32,-6 -47,-15 -17,6 -25,14 -49,19 -21,4 -42,3 -56,-10 -14,-12 -54,-27 10,-45 17,-5 18,-1 33,3zm-68 -89c45,16 42,42 126,5 23,11 44,22 80,6l19 -10c3,-2 -1,0 5,-3 0,43 -9,51 -13,78 -26,-5 -4,-15 -44,-9 -8,-14 -32,-31 -58,-28 -25,3 -44,22 -52,38 -28,-5 -30,4 -51,6 -5,-30 -11,-50 -12,-83zm65 -37c6,-19 25,-38 49,-41 31,-3 43,21 57,32 29,-18 23,-1 39,7 47,23 -8,48 -39,49 -27,0 -28,-9 -45,-16 -20,11 -43,23 -72,20 -18,-2 -19,-8 -32,-13 -11,-6 -21,-7 -21,-22 6,-11 15,-14 27,-18 19,-7 21,-4 37,2zm-1562 152c-49,-11 -96,-43 -119,-71 -34,-44 -32,-93 -25,-154 18,4 47,27 57,36 48,39 81,124 87,189zm29 -26c7,-56 25,-109 50,-150 19,-32 71,-85 104,-91 11,70 9,115 -27,165 -19,28 -78,66 -127,76zm-7 -157c11,-6 26,-10 37,-14 12,-5 24,-13 35,-17 -3,5 -9,12 -13,18 -30,39 -49,99 -58,147 -1,-38 -3,-98 -1,-134zm1599 -54c37,23 68,14 100,-6 0,17 -4,69 -14,79 -12,-15 -15,-15 -39,-9 -36,-50 -96,-27 -110,9 -29,-5 -26,1 -49,6 -7,-25 -12,-56 -12,-83l15 7c28,12 49,19 81,8 11,-3 18,-9 28,-11zm-62 -41c39,-72 93,-32 104,-7 10,-5 21,-18 34,-3 6,7 2,5 11,11 30,20 -6,39 -31,43 -28,5 -40,-4 -56,-14 -22,9 -34,21 -67,19 -8,-1 -58,-15 -57,-32 1,-6 26,-33 62,-17zm-1559 102c-24,-5 -55,-23 -72,-34 -82,-55 -82,-137 -72,-228 13,-2 49,33 58,42 47,47 80,150 86,220zm1617 -188c19,8 25,17 53,13 20,-2 35,-9 46,-18l-11 76c-15,-12 -19,-13 -39,-5 -39,-40 -74,-43 -110,7 -29,-3 -24,-2 -47,7 -6,-14 -12,-65 -12,-82 7,3 1,0 8,4 4,2 3,2 7,3 5,2 9,3 14,5 40,9 45,11 91,-10zm-1590 168c12,-97 53,-224 145,-266 9,18 7,77 5,100 -4,30 -12,56 -26,79 -20,34 -70,75 -124,87zm1531 -208c5,-18 27,-40 51,-41 23,-1 46,24 53,36 12,-10 26,-21 38,-1 10,16 11,9 14,17 8,22 -53,52 -95,17 -22,8 -35,22 -69,18 -55,-8 -74,-36 -27,-51 17,-5 22,0 35,5zm-1538 18c15,-4 27,-9 40,-15 13,-5 24,-13 35,-17 1,10 -17,31 -23,43 -16,26 -30,65 -38,95 -3,14 -8,43 -13,53l-1 -159zm78 -31c4,-9 -1,-2 6,-8 2,-1 4,-2 6,-3 -5,6 -4,6 -12,11zm1399 -75c8,4 12,7 23,11 29,9 61,5 87,-8 12,-6 10,-1 22,5 17,9 42,8 60,2 9,-4 14,-9 23,-13l-9 73c-19,-11 -21,-10 -41,-1 -7,-13 -33,-34 -57,-31 -27,3 -40,20 -52,37 -27,-8 -37,5 -48,4l-8 -79zm59 -39c4,-17 28,-39 51,-40 26,-1 41,25 53,36 0,0 1,-1 1,-1l3 -3c4,-3 0,-1 5,-4 21,-14 38,11 42,23 6,19 -27,34 -53,34 -25,0 -29,-9 -43,-17 -20,11 -38,21 -67,18 -63,-8 -69,-40 -28,-51 20,-5 22,1 36,5zm-1556 133c-48,-11 -101,-47 -127,-91 -14,-24 -21,-52 -24,-84 -2,-20 -3,-86 5,-101 19,6 47,34 59,47 16,17 29,39 41,63 20,40 42,115 46,166zm25 -1c6,-67 42,-182 88,-230 11,-11 41,-40 59,-45 7,17 7,80 5,101 -3,32 -11,59 -25,84 -25,44 -79,80 -127,90zm1472 -218c41,22 71,20 114,-2 16,7 20,16 47,16 27,0 32,-10 48,-16l-6 67c-9,-1 -10,-5 -21,-4 -9,1 -13,6 -19,7 -14,-12 -27,-33 -57,-30 -26,2 -39,20 -52,35 -31,-2 -19,-3 -48,5l-6 -78zm-1478 16c9,-5 29,-10 40,-15 12,-4 40,-22 50,-25 -10,16 -24,31 -37,55 -26,49 -41,100 -52,156l-1 -171zm1535 -56c5,-18 29,-41 53,-40 26,1 43,33 51,38 10,-14 25,-22 40,-7 43,44 -56,75 -82,36 -14,2 -33,20 -71,19 -25,-1 -50,-13 -56,-31 4,-10 15,-17 28,-20 19,-5 23,0 37,5zm-1562 168c-4,-7 -2,-4 -7,-22 -3,-7 -5,-15 -8,-22 -6,-16 -12,-30 -19,-45 -21,-37 -25,-42 -52,-72 52,36 67,32 88,45l0 119 -2 -3zm1506 -259c21,10 28,17 59,15 25,-1 37,-9 56,-17 7,4 11,8 20,12 37,15 59,-5 74,-13l-6 74c-20,-7 -26,-9 -43,4 -14,-11 -41,-55 -88,-20 -9,8 -13,14 -21,23 -9,-1 -14,-3 -24,-3 -9,1 -15,5 -21,3l-6 -78zm55 -40c4,-4 6,-10 9,-13 29,-40 70,-31 96,12 6,-5 7,-11 17,-14 23,-7 49,23 26,45 -26,25 -63,18 -86,-3 -9,3 -19,10 -31,14 -53,17 -94,-11 -94,-26 4,-9 14,-16 27,-20 18,-5 24,-1 36,5zm-1553 173c-23,-4 -57,-21 -74,-33 -23,-14 -37,-30 -52,-55 -13,-22 -21,-53 -23,-82 -1,-11 -3,-86 5,-99 40,16 79,69 98,109 19,39 41,111 46,160z"/>
   <path class="fil3" d="M3770 4560c113,-117 273,-191 485,-191 211,0 371,74 484,191 38,-72 75,-144 112,-216 -164,-124 -390,-195 -596,-195 -207,0 -433,71 -597,195 37,72 74,144 112,216zm1025 -359c-20,19 -40,38 -60,57 46,23 83,47 112,70 -18,-42 -35,-85 -52,-127zm66 142c-17,-45 -35,-89 -52,-134 163,137 278,317 328,557 -3,0 -6,0 -9,0 -14,7 -17,-1 -29,-10 -13,-10 -29,-15 -44,-14 -19,-8 -38,-12 -55,-11 -1,14 -2,29 -6,46 -19,-3 -35,-4 -53,15l-3 5c-42,-108 -100,-195 -175,-263 33,-64 65,-127 98,-191zm278 433c1,7 3,15 4,22 -8,-6 -16,-13 -23,-19 1,-1 4,-2 8,-3 3,-1 7,-1 11,0zm-147 10c-4,15 -8,31 -15,48 -28,-8 -45,-28 -23,-41 13,-8 25,-10 38,-7zm-18 57c-3,9 -7,18 -11,28 -4,-13 -8,-26 -13,-39 9,3 16,8 24,11zm-1260 -642c20,19 40,38 60,57 -46,23 -83,47 -112,70 18,-42 35,-85 52,-127zm-66 142c17,-45 35,-89 52,-134 -170,143 -288,333 -334,589 52,-44 100,-68 143,-67 1,35 12,80 37,140 42,-142 109,-254 200,-337 -33,-64 -65,-127 -98,-191z"/>
   <path class="fil1" d="M4150 4820c11,-4 22,-9 28,-18 8,-12 8,-32 9,-45 1,-51 27,-92 58,-130l8 -9 7 9c31,38 57,79 58,130 1,13 1,33 9,45 7,9 17,14 28,18 0,0 0,0 0,0 5,-11 3,-25 0,-36 -4,-16 -11,-33 -18,-48 -6,-17 -14,-34 -18,-51l-3 -14 13 4c4,2 8,3 12,5 36,16 63,47 86,79 14,19 27,39 40,60 9,14 17,28 26,42 -4,-36 -7,-73 -11,-109l-2 -16 14 9c27,17 46,38 59,67 5,12 9,23 13,34 4,10 8,20 13,30 10,15 22,25 38,32 1,-14 1,-27 0,-41 -1,-15 -2,-30 0,-45 1,-5 2,-11 5,-16l3 -10 9 7c44,36 83,83 88,142 6,65 -31,123 -74,168l-4 4 -5 -2c-123,-54 -253,-74 -386,-74 -134,0 -264,20 -387,74l-5 2 -4 -4c-43,-45 -80,-103 -74,-168 5,-59 44,-106 88,-142l9 -7 3 10c3,5 4,11 5,16 2,15 1,30 0,45 -1,14 -1,27 0,41 16,-7 28,-17 38,-32 5,-10 9,-20 13,-30 4,-11 8,-22 13,-34 13,-29 32,-50 59,-67l14 -9 -2 16c-4,36 -7,73 -11,109 9,-14 17,-28 26,-42 13,-21 26,-41 40,-60 23,-32 50,-63 86,-79 4,-2 8,-3 12,-5l13 -4 -3 14c-4,17 -12,34 -18,51 -7,15 -14,32 -18,48 -3,11 -5,25 0,36 0,0 0,0 0,0z"/>
   <path class="fil4" d="M4147 4830c40,-14 47,-30 47,-73 1,-43 20,-80 57,-125l2 -2 1 2c37,45 56,82 57,125 1,43 7,59 47,73 25,-33 -19,-97 -31,-147 69,23 110,104 177,211 -5,-47 -9,-96 -14,-143 89,56 47,139 134,168 6,-47 -7,-79 5,-110 109,88 115,192 14,299 -113,-49 -239,-75 -390,-75 -152,0 -278,26 -391,75 -101,-107 -95,-211 14,-299 12,31 -1,63 5,110 87,-29 45,-112 134,-168 -5,47 -9,96 -14,143 67,-107 108,-188 177,-211 -12,50 -56,114 -31,147z"/>
   <polygon class="fil1" points="4276,4512 4348,4512 4290,4554 4312,4623 4254,4580 4196,4623 4218,4554 4160,4512 4232,4512 4254,4443 "/>
   <polygon class="fil4" points="4254,4469 4270,4520 4324,4520 4281,4551 4297,4602 4254,4571 4210,4602 4227,4551 4184,4520 4237,4520 "/>
   <path class="fil1" d="M3903 4965c5,-2 11,-3 17,-5 0,3 0,6 0,9 0,2 0,5 0,8 -6,2 -12,3 -17,5 0,-3 0,-6 0,-9 0,-2 0,-5 0,-8zm25 -7c6,-2 12,-4 17,-5 0,3 0,5 0,8 0,3 0,6 0,9 -5,1 -11,3 -17,5 0,-3 0,-6 0,-9 0,-3 0,-6 0,-8zm26 -7c5,-2 11,-3 17,-5 0,3 0,6 0,9 0,3 0,5 0,8 -6,2 -12,3 -17,5 0,-3 0,-6 0,-9 0,-3 0,-6 0,-8zm25 -7c6,-1 12,-2 17,-4 0,3 0,6 0,9 0,2 0,5 0,8 -5,1 -11,3 -17,4 0,-3 0,-5 0,-8 0,-3 0,-6 0,-9zm26 -6c6,-1 11,-2 17,-3 0,3 0,5 0,8 0,3 0,6 0,8 -6,2 -11,3 -17,4 0,-3 0,-5 0,-8 0,-3 0,-6 0,-9zm26 -5c5,-1 11,-2 17,-3 0,3 0,5 0,8 0,3 0,6 0,8 -6,1 -12,2 -17,4 0,-3 0,-6 0,-9 0,-2 0,-5 0,-8zm25 -5c6,-1 12,-2 17,-3 0,3 0,6 0,8 0,3 0,6 0,9 -5,1 -11,2 -17,3 0,-3 0,-6 0,-8 0,-3 0,-6 0,-9zm26 -4c6,-1 11,-2 17,-3 0,3 0,6 0,9 0,2 0,5 0,8 -6,1 -11,1 -17,2 0,-3 0,-5 0,-8 0,-3 0,-5 0,-8zm26 -4c6,-1 11,-1 17,-2 0,3 0,5 0,8 0,3 0,5 0,8 -6,1 -11,2 -17,3 0,-3 0,-6 0,-9 0,-2 0,-5 0,-8zm26 -3c6,-1 11,-1 17,-2 0,3 0,6 0,8 0,3 0,6 0,8 -6,1 -11,2 -17,2 0,-3 0,-5 0,-8 0,-3 0,-5 0,-8zm26 -3c6,0 11,-1 17,-1 0,3 0,5 0,8 0,3 0,5 0,8 -6,0 -11,1 -17,1 0,-2 0,-5 0,-8 0,-2 0,-5 0,-8zm26 -2c6,0 11,0 17,-1 0,3 0,6 0,8 0,3 0,6 0,8 -6,1 -11,1 -17,1 0,-2 0,-5 0,-8 0,-2 0,-5 0,-8zm26 -1c6,0 11,0 17,-1 0,3 0,6 0,8 0,3 0,6 0,8 -6,0 -11,0 -17,1 0,-3 0,-6 0,-8 0,-3 0,-6 0,-8zm26 -1c6,0 12,0 17,0 0,2 0,5 0,8 0,2 0,5 0,8 -5,0 -11,0 -17,0 0,-3 0,-5 0,-8 0,-3 0,-5 0,-8zm27 0c5,0 11,0 17,0 0,3 0,5 0,8 0,3 0,5 0,8 -6,0 -12,0 -17,0 0,-3 0,-6 0,-8 0,-3 0,-5 0,-8zm26 0c6,0 11,1 17,1 0,3 0,5 0,8 0,2 0,5 0,7 -6,0 -11,0 -17,0 0,-3 0,-5 0,-8 0,-3 0,-5 0,-8zm26 1c6,1 12,1 17,1 0,3 0,6 0,8 0,3 0,5 0,8 -5,0 -11,-1 -17,-1 0,-3 0,-5 0,-8 0,-2 0,-5 0,-8zm27 2c6,1 11,1 17,2 0,2 0,5 0,7 0,3 0,6 0,8 -6,0 -11,-1 -17,-1 0,-3 0,-6 0,-8 0,-3 0,-5 0,-8zm26 2c6,1 12,2 17,2 0,3 0,5 0,8 0,3 0,5 0,8 -5,-1 -11,-1 -17,-2 0,-3 0,-5 0,-8 0,-2 0,-5 0,-8zm27 4c6,0 11,1 17,2 0,2 0,5 0,8 0,2 0,5 0,7 -6,0 -11,-1 -17,-2 0,-3 0,-5 0,-8 0,-2 0,-5 0,-7zm27 3c5,1 11,2 17,3 0,3 0,5 0,8 0,2 0,5 0,8 -6,-1 -12,-2 -17,-3 0,-3 0,-5 0,-8 0,-3 0,-5 0,-8zm26 5c6,1 12,2 17,3 0,2 0,5 0,8 0,2 0,5 0,8 -5,-1 -11,-3 -17,-4 0,-2 0,-5 0,-7 0,-3 0,-6 0,-8zm27 5c6,1 12,2 17,3 0,3 0,6 0,8 0,3 0,6 0,8 -5,-1 -11,-2 -17,-4 0,-2 0,-5 0,-7 0,-3 0,-6 0,-8zm27 6c6,1 11,2 17,4 0,2 0,5 0,8 0,2 0,5 0,8 -6,-2 -11,-3 -17,-4 0,-3 0,-6 0,-8 0,-3 0,-6 0,-8zm27 6c6,2 11,3 17,5 0,2 0,5 0,8 0,3 0,5 0,8 -6,-1 -11,-3 -17,-5 0,-2 0,-5 0,-8 0,-2 0,-5 0,-8zm27 7c6,2 11,4 17,6 0,2 0,5 0,8 0,3 0,5 0,8 -6,-2 -11,-3 -17,-5 0,-3 0,-6 0,-8 0,-3 0,-6 0,-9zm27 9c6,1 11,3 17,5 0,3 0,6 0,8 0,3 0,6 0,9 -6,-2 -11,-4 -17,-6 0,-2 0,-5 0,-8 0,-3 0,-6 0,-8zm-682 39c5,-2 11,-3 17,-5 0,3 0,6 0,8 0,3 0,6 0,9 -6,2 -12,3 -17,5 0,-3 0,-6 0,-9 0,-3 0,-5 0,-8zm25 -7c6,-2 12,-4 17,-5 0,3 0,5 0,8 0,3 0,6 0,9 -5,1 -11,3 -17,5 0,-3 0,-6 0,-9 0,-3 0,-6 0,-8zm26 -7c5,-2 11,-3 17,-5 0,3 0,6 0,9 0,3 0,5 0,8 -6,2 -12,3 -17,4 0,-2 0,-5 0,-8 0,-3 0,-6 0,-8zm25 -7c6,-1 12,-3 17,-4 0,3 0,6 0,9 0,2 0,5 0,8 -5,1 -11,3 -17,4 0,-3 0,-6 0,-8 0,-3 0,-6 0,-9zm26 -6c6,-1 11,-2 17,-3 0,3 0,5 0,8 0,3 0,6 0,8 -6,2 -11,3 -17,4 0,-3 0,-5 0,-8 0,-3 0,-6 0,-9zm26 -5c5,-1 11,-2 17,-3 0,3 0,5 0,8 0,3 0,5 0,8 -6,1 -12,2 -17,4 0,-3 0,-6 0,-9 0,-3 0,-5 0,-8zm25 -5c6,-1 12,-2 17,-3 0,3 0,6 0,8 0,3 0,6 0,9 -5,1 -11,2 -17,3 0,-3 0,-6 0,-9 0,-2 0,-5 0,-8zm26 -4c6,-1 11,-2 17,-3 0,3 0,6 0,9 0,2 0,5 0,8 -6,0 -11,1 -17,2 0,-3 0,-5 0,-8 0,-3 0,-5 0,-8zm26 -4c6,-1 11,-1 17,-2 0,3 0,5 0,8 0,3 0,5 0,8 -6,1 -11,2 -17,2 0,-2 0,-5 0,-8 0,-2 0,-5 0,-8zm26 -3c6,-1 11,-1 17,-2 0,3 0,6 0,8 0,3 0,6 0,8 -6,1 -11,1 -17,2 0,-3 0,-5 0,-8 0,-3 0,-5 0,-8zm26 -3c6,0 11,-1 17,-1 0,3 0,5 0,8 0,3 0,5 0,8 -6,0 -11,1 -17,1 0,-2 0,-5 0,-8 0,-2 0,-5 0,-8zm26 -2c6,0 11,0 17,-1 0,3 0,6 0,8 0,3 0,6 0,8 -6,1 -11,1 -17,1 0,-2 0,-5 0,-8 0,-2 0,-5 0,-8zm26 -1c6,0 11,-1 17,-1 0,3 0,6 0,8 0,3 0,5 0,8 -6,0 -11,0 -17,1 0,-3 0,-6 0,-8 0,-3 0,-6 0,-8zm26 -1c6,0 12,0 17,0 0,2 0,5 0,8 0,2 0,5 0,7 -5,1 -11,1 -17,1 0,-3 0,-5 0,-8 0,-3 0,-5 0,-8zm27 0c5,0 11,0 17,0 0,3 0,5 0,8 0,3 0,5 0,8 -6,0 -12,0 -17,-1 0,-2 0,-5 0,-7 0,-3 0,-6 0,-8zm26 0c6,0 11,1 17,1 0,2 0,5 0,8 0,2 0,5 0,7 -6,0 -11,0 -17,0 0,-3 0,-5 0,-8 0,-3 0,-5 0,-8zm26 1c6,1 12,1 17,1 0,3 0,5 0,8 0,3 0,5 0,8 -5,0 -11,-1 -17,-1 0,-3 0,-5 0,-8 0,-2 0,-5 0,-8zm27 2c6,0 11,1 17,2 0,2 0,5 0,7 0,3 0,5 0,8 -6,-1 -11,-1 -17,-2 0,-2 0,-5 0,-7 0,-3 0,-5 0,-8zm26 2c6,1 12,1 17,2 0,3 0,5 0,8 0,3 0,5 0,8 -5,-1 -11,-1 -17,-2 0,-3 0,-5 0,-8 0,-2 0,-5 0,-8zm27 3c6,1 11,2 17,3 0,2 0,5 0,8 0,2 0,5 0,7 -6,0 -11,-1 -17,-2 0,-3 0,-5 0,-8 0,-2 0,-5 0,-8zm27 4c5,1 11,2 17,3 0,3 0,5 0,8 0,2 0,5 0,8 -6,-2 -12,-2 -17,-3 0,-3 0,-5 0,-8 0,-3 0,-5 0,-8zm26 5c6,1 12,2 17,3 0,2 0,5 0,8 0,2 0,5 0,7 -5,-1 -11,-2 -17,-3 0,-2 0,-5 0,-8 0,-2 0,-5 0,-7zm27 5c6,1 12,2 17,3 0,3 0,6 0,8 0,3 0,6 0,8 -5,-1 -11,-2 -17,-4 0,-2 0,-5 0,-7 0,-3 0,-6 0,-8zm27 6c6,1 11,2 17,4 0,2 0,5 0,8 0,2 0,5 0,8 -6,-2 -11,-3 -17,-4 0,-3 0,-6 0,-8 0,-3 0,-6 0,-8zm27 6c6,2 11,3 17,5 0,2 0,5 0,8 0,3 0,5 0,8 -6,-2 -11,-3 -17,-5 0,-2 0,-5 0,-8 0,-2 0,-5 0,-8zm27 7c6,2 11,4 17,5 0,3 0,6 0,9 0,3 0,5 0,8 -6,-2 -11,-3 -17,-5 0,-3 0,-6 0,-8 0,-3 0,-6 0,-9zm27 9c6,1 11,3 17,5 0,3 0,5 0,8 0,3 0,6 0,9 -6,-2 -11,-4 -17,-6 0,-2 0,-5 0,-8 0,-3 0,-6 0,-8zm-682 39c5,-2 11,-3 17,-5 0,3 0,6 0,8 0,3 0,6 0,9 -6,2 -12,3 -17,5 0,-3 0,-6 0,-9 0,-3 0,-5 0,-8zm25 -7c6,-2 12,-4 17,-5 0,3 0,5 0,8 0,3 0,6 0,9 -5,1 -11,3 -17,5 0,-3 0,-6 0,-9 0,-3 0,-6 0,-8zm26 -7c5,-2 11,-3 17,-5 0,3 0,6 0,9 0,3 0,5 0,8 -6,2 -12,3 -17,4 0,-2 0,-5 0,-8 0,-3 0,-6 0,-8zm25 -7c6,-1 12,-3 17,-4 0,3 0,6 0,9 0,2 0,5 0,8 -5,1 -11,3 -17,4 0,-3 0,-6 0,-8 0,-3 0,-6 0,-9zm26 -6c6,-1 11,-2 17,-3 0,2 0,5 0,8 0,3 0,6 0,8 -6,2 -11,3 -17,4 0,-3 0,-6 0,-8 0,-3 0,-6 0,-9zm26 -5c5,-1 11,-2 17,-3 0,2 0,5 0,8 0,3 0,5 0,8 -6,1 -12,2 -17,3 0,-2 0,-5 0,-8 0,-3 0,-5 0,-8zm25 -5c6,-1 12,-2 17,-3 0,3 0,6 0,8 0,3 0,6 0,9 -5,1 -11,2 -17,3 0,-3 0,-6 0,-9 0,-2 0,-5 0,-8zm26 -4c6,-1 11,-2 17,-3 0,3 0,6 0,8 0,3 0,6 0,9 -6,0 -11,1 -17,2 0,-3 0,-5 0,-8 0,-3 0,-6 0,-8zm26 -4c6,-1 11,-2 17,-2 0,3 0,5 0,8 0,3 0,5 0,8 -6,1 -11,2 -17,2 0,-2 0,-5 0,-8 0,-2 0,-5 0,-8zm26 -3c6,-1 11,-1 17,-2 0,3 0,5 0,8 0,3 0,6 0,8 -6,1 -11,1 -17,2 0,-3 0,-5 0,-8 0,-3 0,-5 0,-8zm26 -3c6,0 11,-1 17,-1 0,3 0,5 0,8 0,2 0,5 0,8 -6,0 -11,1 -17,1 0,-2 0,-5 0,-8 0,-2 0,-5 0,-8zm26 -2c6,0 11,0 17,-1 0,3 0,5 0,8 0,3 0,5 0,8 -6,0 -11,1 -17,1 0,-2 0,-5 0,-8 0,-2 0,-5 0,-8zm26 -1c6,0 11,-1 17,-1 0,3 0,6 0,8 0,3 0,5 0,8 -6,0 -11,0 -17,1 0,-3 0,-6 0,-8 0,-3 0,-6 0,-8zm26 -1c6,0 12,0 17,0 0,2 0,5 0,8 0,2 0,5 0,7 -5,1 -11,1 -17,1 0,-3 0,-5 0,-8 0,-3 0,-5 0,-8zm27 0c5,0 11,0 17,0 0,3 0,5 0,8 0,2 0,5 0,8 -6,0 -12,-1 -17,-1 0,-2 0,-5 0,-7 0,-3 0,-6 0,-8zm26 0c6,0 11,1 17,1 0,2 0,5 0,8 0,2 0,5 0,7 -6,0 -11,0 -17,0 0,-3 0,-5 0,-8 0,-3 0,-5 0,-8zm26 1c6,1 12,1 17,1 0,3 0,5 0,8 0,3 0,5 0,8 -5,0 -11,-1 -17,-1 0,-3 0,-5 0,-8 0,-3 0,-5 0,-8zm27 2c6,0 11,1 17,1 0,3 0,6 0,8 0,3 0,5 0,8 -6,-1 -11,-1 -17,-2 0,-2 0,-5 0,-7 0,-3 0,-6 0,-8zm26 2c6,1 12,1 17,2 0,3 0,5 0,8 0,2 0,5 0,8 -5,-1 -11,-2 -17,-2 0,-3 0,-5 0,-8 0,-2 0,-5 0,-8zm27 3c6,1 11,2 17,3 0,2 0,5 0,7 0,3 0,6 0,8 -6,-1 -11,-1 -17,-2 0,-3 0,-5 0,-8 0,-2 0,-5 0,-8zm27 4c5,1 11,2 17,3 0,2 0,5 0,8 0,2 0,5 0,7 -6,-1 -12,-1 -17,-2 0,-3 0,-6 0,-8 0,-3 0,-5 0,-8zm26 5c6,1 12,2 17,3 0,2 0,5 0,7 0,3 0,6 0,8 -5,-1 -11,-2 -17,-3 0,-2 0,-5 0,-8 0,-2 0,-5 0,-7zm27 5c6,1 12,2 17,3 0,3 0,6 0,8 0,3 0,6 0,8 -5,-1 -11,-2 -17,-4 0,-2 0,-5 0,-8 0,-2 0,-5 0,-7zm27 5c6,2 11,3 17,5 0,2 0,5 0,8 0,2 0,5 0,8 -6,-2 -11,-3 -17,-4 0,-3 0,-6 0,-9 0,-2 0,-5 0,-8zm27 7c6,2 11,3 17,5 0,2 0,5 0,8 0,3 0,5 0,8 -6,-2 -11,-3 -17,-5 0,-2 0,-5 0,-8 0,-2 0,-5 0,-8zm27 7c6,2 11,4 17,5 0,3 0,6 0,9 0,3 0,5 0,8 -6,-2 -11,-4 -17,-5 0,-3 0,-6 0,-9 0,-2 0,-5 0,-8zm27 9c6,1 11,3 17,5 0,3 0,5 0,8 0,3 0,6 0,9 -6,-2 -11,-4 -17,-6 0,-2 0,-5 0,-8 0,-3 0,-6 0,-8z"/>
   <path class="fil3" d="M4739 6465c-113,117 -273,191 -484,191 -212,0 -372,-74 -485,-191 -38,72 -75,144 -112,216 164,124 390,196 597,196 206,0 432,-72 596,-196 -37,-72 -74,-144 -112,-216zm-1025 359c20,-19 40,-38 60,-57 -46,-23 -83,-47 -112,-70 18,42 35,85 52,127zm-66 -142c17,45 35,90 52,134 -170,-143 -288,-333 -334,-589 31,27 61,46 90,57l1 4 19 2c11,3 22,4 33,4 1,-33 11,-75 33,-130 2,-1 4,-3 6,-4 42,139 108,249 198,332 -33,63 -65,126 -98,190zm1147 142c-20,-19 -40,-38 -60,-57 46,-23 83,-47 112,-70 -18,42 -35,85 -52,127zm66 -142c-17,45 -35,90 -52,134 167,-141 284,-327 332,-577 -37,33 -93,78 -127,83 -19,-24 -44,-75 -54,-106 -3,-11 -6,-19 -8,-26 -42,125 -106,225 -189,302 33,63 65,126 98,190zm243 -425c-35,23 -68,37 -99,37 5,8 9,14 13,17 15,-6 47,-27 61,-36 8,-6 17,-12 25,-18zm-105 26c-2,-33 -13,-75 -36,-129 -2,6 -4,12 -6,18 10,38 27,83 42,111z"/>
   <path class="fil2" d="M5018 6311c15,-6 47,-27 61,-36 59,-42 123,-86 120,-169 -7,-1 -16,7 -24,10 -56,22 -84,-5 -88,-5 -10,2 -20,10 -31,14 -12,4 -24,7 -37,8 -22,2 -58,-3 -68,-18 -8,47 44,177 67,196z"/>
   <path class="fil5" d="M3477 5312c48,-10 102,-46 127,-90 14,-25 22,-52 25,-84 2,-21 2,-84 -5,-101 -18,5 -48,34 -59,45 -46,48 -82,163 -88,230z"/>
   <path class="fil5" d="M3452 5313c-4,-51 -26,-126 -46,-166 -12,-24 -25,-46 -41,-63 -12,-13 -40,-41 -59,-47 -8,15 -7,81 -5,101 3,32 10,60 24,84 26,44 79,80 127,91z"/>
   <path class="fil5" d="M3477 5096c47,-8 100,-43 126,-86 14,-23 21,-51 24,-82 2,-24 2,-90 -6,-101 -17,7 -46,33 -57,45 -14,17 -28,39 -40,63 -22,45 -38,105 -47,161z"/>
   <path class="fil5" d="M3452 5096c-5,-49 -27,-121 -46,-160 -19,-40 -58,-93 -98,-109 -8,13 -6,88 -5,99 2,29 10,60 23,82 15,25 29,41 52,55 17,12 51,29 74,33z"/>
   <path class="fil5" d="M3479 5515c54,-12 104,-53 124,-87 14,-23 22,-49 26,-79 2,-23 4,-82 -5,-100 -92,42 -133,169 -145,266z"/>
   <path class="fil5" d="M3452 5535c-6,-70 -39,-173 -86,-220 -9,-9 -45,-44 -58,-42 -10,91 -10,173 72,228 17,11 48,29 72,34z"/>
   <path class="fil5" d="M3481 5685c49,-10 108,-48 127,-76 36,-50 38,-95 27,-165 -33,6 -85,59 -104,91 -25,41 -43,94 -50,150z"/>
   <path class="fil5" d="M3479 6036c42,-8 96,-43 122,-78 27,-37 33,-114 22,-166 -34,11 -75,64 -95,99 -22,38 -42,96 -49,145z"/>
   <path class="fil5" d="M3452 5711c-6,-65 -39,-150 -87,-189 -10,-9 -39,-32 -57,-36 -7,61 -9,110 25,154 23,28 70,60 119,71z"/>
   <path class="fil6" d="M5086 6100c17,7 22,17 53,16 19,-2 37,-8 51,-17 15,-11 17,-20 -6,-39 -18,-15 -31,-13 -56,-12 -8,-15 -32,-30 -60,-26 -26,5 -35,21 -46,40 -14,-2 -42,-10 -64,5 -38,26 28,95 128,33z"/>
   <path class="fil5" d="M3482 5860c46,-8 96,-44 117,-68 32,-37 41,-116 25,-146 -24,7 -63,38 -79,57 -35,43 -56,95 -63,157z"/>
   <path class="fil5" d="M3310 5674c-12,57 -5,112 26,147 26,30 78,60 116,68 -3,-49 -24,-103 -46,-136 -13,-19 -26,-33 -43,-47 -7,-6 -42,-31 -53,-32z"/>
   <path class="fil5" d="M3310 5872c-8,60 -8,105 27,145 22,25 68,58 115,70 -1,-85 -61,-187 -142,-215z"/>
   <path class="fil5" d="M3311 6032c-15,59 -5,106 26,145 19,24 70,60 115,70 -2,-48 -22,-104 -44,-135 -16,-22 -24,-31 -43,-47 -15,-11 -34,-26 -54,-33z"/>
   <path class="fil5" d="M3481 6178c46,-9 94,-44 116,-69 34,-40 34,-83 27,-144 -14,-3 -31,18 -39,26 -17,17 -38,20 -58,52 -24,37 -41,82 -46,135z"/>
   <path class="fil6" d="M5020 5937c-15,-4 -14,-6 -32,-3 -43,5 -51,26 -20,51 30,24 90,4 115,-13 8,3 13,10 26,13 37,11 83,-12 85,-25 -1,-18 -19,-31 -37,-35 -34,-7 -19,0 -29,-2 -4,0 -12,-12 -17,-15 -36,-29 -79,-4 -91,29z"/>
   <path class="fil6" d="M5081 5845c7,3 11,8 21,12 47,16 120,-24 67,-51 -7,-3 -9,-2 -23,-9 -10,-5 -13,-1 -22,3 -34,-50 -92,-31 -106,11 -20,-5 -17,-6 -40,-1 -20,5 -41,17 -20,33 11,9 14,24 49,24 34,1 51,-11 74,-22z"/>
   <path class="fil6" d="M5017 5685c-15,-4 -16,-8 -33,-3 -64,18 -24,33 -10,45 14,13 35,14 56,10 24,-5 32,-13 49,-19 15,9 22,16 47,15 19,-1 34,-8 46,-16 18,-12 8,-28 -7,-35 -28,-13 -10,-4 -20,-11 -10,-6 -17,2 -23,4 -10,-8 -9,-13 -23,-22 -37,-24 -76,5 -82,32z"/>
   <path class="fil6" d="M5014 5559c-16,-6 -18,-9 -37,-2 -12,4 -21,7 -27,18 0,15 10,16 21,22 13,5 14,11 32,13 29,3 52,-9 72,-20 17,7 18,16 45,16 31,-1 86,-26 39,-49 -16,-8 -10,-25 -39,-7 -14,-11 -26,-35 -57,-32 -24,3 -43,22 -49,41z"/>
   <path class="fil6" d="M5011 5433c-36,-16 -61,11 -62,17 -1,17 49,31 57,32 33,2 45,-10 67,-19 16,10 28,19 56,14 25,-4 61,-23 31,-43 -9,-6 -5,-4 -11,-11 -13,-15 -24,-2 -34,3 -11,-25 -65,-65 -104,7z"/>
   <path class="fil6" d="M5010 5307c-13,-5 -18,-10 -35,-5 -47,15 -28,43 27,51 34,4 47,-10 69,-18 42,35 103,5 95,-17 -3,-8 -4,-1 -14,-17 -12,-20 -26,-9 -38,1 -7,-12 -30,-37 -53,-36 -24,1 -46,23 -51,41z"/>
   <path class="fil6" d="M5005 4923c-12,-6 -18,-10 -36,-5 -13,4 -23,11 -27,20 0,15 41,43 94,26 12,-4 22,-11 31,-14 23,21 60,28 86,3 23,-22 -3,-52 -26,-45 -10,3 -11,9 -17,14 -26,-43 -67,-52 -96,-12 -3,3 -5,9 -9,13z"/>
   <path class="fil6" d="M5008 5180c-14,-4 -16,-10 -36,-5 -41,11 -35,43 28,51 29,3 47,-7 67,-18 14,8 18,17 43,17 26,0 59,-15 53,-34 -4,-12 -21,-37 -42,-23 -5,3 -1,1 -5,4l-3 3c0,0 -1,1 -1,1 -12,-11 -27,-37 -53,-36 -23,1 -47,23 -51,40z"/>
   <path class="fil6" d="M5005 4791c-17,-9 -34,-9 -51,2 -31,18 16,51 65,43 23,-4 32,-13 48,-18 14,10 19,18 41,19 19,0 36,-7 46,-17 22,-20 -5,-50 -26,-44 -13,3 -11,7 -18,14 -9,-12 -29,-38 -51,-38 -33,-1 -48,32 -54,39z"/>
   <path class="fil6" d="M5006 5054c-14,-5 -18,-10 -37,-5 -13,3 -24,10 -28,20 6,18 31,30 56,31 38,1 57,-17 71,-19 26,39 125,8 82,-36 -15,-15 -30,-7 -40,7 -8,-5 -25,-37 -51,-38 -24,-1 -48,22 -53,40z"/>
   <path class="fil2" d="M5065 4829c-19,9 -31,15 -55,17 -33,3 -43,-7 -60,-15l6 82c23,-7 25,-6 47,-2 20,-37 68,-56 107,-4 22,-9 13,-12 43,-5l6 -73c-34,24 -62,21 -94,0z"/>
   <path class="fil2" d="M4950 4963l6 78c6,2 12,-2 21,-3 10,0 15,2 24,3 8,-9 12,-15 21,-23 47,-35 74,9 88,20 17,-13 23,-11 43,-4l6 -74c-15,8 -37,28 -74,13 -9,-4 -13,-8 -20,-12 -19,8 -31,16 -56,17 -31,2 -38,-5 -59,-15z"/>
   <path class="fil2" d="M5073 5474c-10,2 -17,8 -28,11 -32,11 -53,4 -81,-8l-15 -7c0,27 5,58 12,83 23,-5 20,-11 49,-6 14,-36 74,-59 110,-9 24,-6 27,-6 39,9 10,-10 14,-62 14,-79 -32,20 -63,29 -100,6z"/>
   <path class="fil2" d="M4949 5596c1,33 7,53 12,83 21,-2 23,-11 51,-6 8,-16 27,-35 52,-38 26,-3 50,14 58,28 40,-6 18,4 44,9 4,-27 13,-35 13,-78 -6,3 -2,1 -5,3l-19 10c-36,16 -57,5 -80,-6 -84,37 -81,11 -126,-5z"/>
   <path class="fil2" d="M5169 5796c11,-15 17,-54 14,-75 -18,10 -29,20 -57,21 -49,2 -33,-21 -59,-8 -17,9 -43,16 -66,13 -31,-3 -30,-17 -51,-25 -2,32 6,55 10,83 23,-3 28,-7 54,-7 21,-31 54,-49 89,-30 13,8 13,10 23,20 26,-3 21,3 43,8z"/>
   <path class="fil2" d="M5016 5925c16,-44 89,-52 112,-12 25,-2 29,5 50,9 2,-10 7,-22 9,-34 3,-13 4,-27 3,-41 -19,11 -30,21 -60,22 -50,2 -33,-21 -61,-7 -18,9 -44,16 -68,14 -35,-2 -39,-20 -52,-28 -3,23 4,61 10,83 21,-5 33,-10 57,-6z"/>
   <path class="fil2" d="M5069 5347c-46,21 -51,19 -91,10 -5,-2 -9,-3 -14,-5 -4,-1 -3,-1 -7,-3 -7,-4 -1,-1 -8,-4 0,17 6,68 12,82 23,-9 18,-10 47,-7 36,-50 71,-47 110,-7 20,-8 24,-7 39,5l11 -76c-11,9 -26,16 -46,18 -28,4 -34,-5 -53,-13z"/>
   <path class="fil2" d="M4949 5219l8 79c11,1 21,-12 48,-4 12,-17 25,-34 52,-37 24,-3 50,18 57,31 20,-9 22,-10 41,1l9 -73c-9,4 -14,9 -23,13 -18,6 -43,7 -60,-2 -12,-6 -10,-11 -22,-5 -26,13 -58,17 -87,8 -11,-4 -15,-7 -23,-11z"/>
   <path class="fil2" d="M4949 5094l6 78c29,-8 17,-7 48,-5 13,-15 26,-33 52,-35 30,-3 43,18 57,30 6,-1 10,-6 19,-7 11,-1 12,3 21,4l6 -67c-16,6 -21,16 -48,16 -27,0 -31,-9 -47,-16 -43,22 -73,24 -114,2z"/>
   <path class="fil2" d="M5179 6045c12,-13 16,-48 15,-69 -21,10 -31,20 -62,21 -49,1 -33,-22 -60,-8 -19,9 -43,16 -67,16 -29,-1 -39,-9 -54,-24 -2,19 3,59 9,74 22,-6 34,-8 58,-4 11,-23 40,-46 78,-36 21,5 32,20 36,22 6,3 18,0 26,2 8,1 15,4 21,6z"/>
   <path class="fil7" d="M3550 5294c8,-5 7,-5 12,-11 -2,1 -4,2 -6,3 -7,6 -2,-1 -6,8z"/>
   <path class="fil1" d="M3631 6031c2,-23 -1,-47 -5,-71l-23 8 5 -15c3,-9 9,-18 12,-28 3,-10 6,-20 7,-30l2 -17c2,-30 1,-60 -4,-90l-18 5 5 -14c3,-8 7,-16 10,-24 8,-16 10,-29 11,-47 0,-14 -1,-27 -2,-41 -1,-8 -3,-17 -4,-25 -17,6 -32,18 -47,28l-8 5 -8 -22 3 -3c3,-3 7,-6 10,-8 5,-4 10,-8 15,-12 2,-2 4,-4 5,-5 3,-3 5,-6 8,-9 3,-3 6,-7 9,-10 1,-1 3,-3 4,-5 2,-6 5,-11 8,-16 3,-6 6,-12 8,-19 8,-25 11,-47 9,-74 -2,-19 -5,-38 -6,-58l-1 -5 5 -3c39,-16 81,-10 119,5l14 5 -13 8c-18,12 -35,27 -43,47 -9,24 -3,49 7,71 44,-50 102,-60 167,-40l21 6 -20 8c-13,6 -29,15 -32,30 -6,26 28,54 47,68 64,7 128,6 192,-3l1 0 0 0c41,-5 83,-9 125,-9 31,0 61,3 90,11 32,8 61,21 89,35 18,9 35,18 53,28 21,11 42,23 63,35l0 0 0 0c36,21 74,40 114,48 16,4 33,5 50,5 13,-21 29,-39 50,-53 51,-33 109,-28 162,-4l58 -64 4 12c2,5 2,9 0,14 -4,7 -10,5 -9,15 0,4 0,3 1,6 2,3 2,7 1,10 -4,13 -1,34 2,47 2,14 6,29 8,43l0 5 -4 3c-5,3 -9,6 -8,12 0,5 3,11 3,17 -1,14 -1,27 0,41 2,15 5,29 9,43l1 4 -3 3c-1,2 -2,3 -4,4 -1,3 -2,5 -4,7 -1,1 -2,2 -3,3 -1,3 0,8 0,11 4,7 3,19 2,26 0,5 0,10 0,15 2,14 3,28 7,41 2,8 3,18 -3,25 -4,4 -6,3 -8,11 0,2 -1,4 0,6 0,1 1,3 1,4 1,2 2,4 2,7 2,8 1,18 1,27 1,15 1,32 4,47l1 2 -1 2c-12,40 -28,79 -46,117l-3 4 -5 0c-436,-20 -874,-18 -1310,-40l-5 0 -2 -5c-13,-31 -24,-63 -34,-95l-2 -5 6 -4c2,-1 4,-2 6,-4 42,-27 65,-63 71,-113z"/>
   <path class="fil8" d="M3558 6155c9,32 20,64 33,94 432,22 878,20 1311,40 18,-37 33,-76 46,-115 -3,-13 -4,-24 -4,-49 -1,-7 0,-19 -1,-26 -2,-9 -6,-8 -4,-20 5,-19 17,-8 11,-32 -3,-14 -5,-29 -6,-42 -1,-13 2,-35 -3,-39 -2,-24 6,-19 8,-29 3,-2 2,0 5,-4 -8,-32 -12,-54 -9,-87 1,-7 -12,-24 9,-35 -3,-26 -17,-70 -10,-93 2,-7 -2,-3 -2,-14 -1,-18 15,-14 10,-27l-53 59c-95,-46 -171,-11 -210,56 -61,2 -118,-22 -172,-54 -183,-101 -208,-123 -415,-100 -73,11 -138,10 -197,3 -67,-46 -68,-89 -15,-112 -68,-20 -125,-6 -167,47 -34,-64 -15,-107 34,-138 -45,-17 -82,-17 -113,-4 4,48 15,81 -3,135 -5,14 -12,25 -16,36 -3,2 -21,25 -27,31 -14,12 -22,15 -25,19l0 0 3 8c14,-9 35,-25 57,-31 4,27 8,47 8,76 -2,39 -13,49 -21,74l12 -4c5,34 7,66 5,101l-2 17c-2,11 -4,21 -8,32 -3,10 -8,18 -11,28l16 -6c5,26 9,54 7,82 -7,54 -32,92 -75,119 -2,1 -4,3 -6,4z"/>
   <path class="fil1" d="M4741 6462l-2 2c-130,133 -299,191 -483,191 -185,0 -354,-58 -484,-191l-2 -2 -1 2c-4,7 -7,14 -11,21l-5 10 -7 -7c-97,-90 -159,-205 -196,-331l-2 -5 6 -4c2,-1 4,-2 6,-4 7,-4 14,-9 20,-14l1 -1 1 -1c98,-35 200,-60 303,-76 114,-19 229,-28 345,-28 130,0 260,11 388,35 113,21 225,52 331,97l4 2 0 4c1,3 2,6 2,10l1 2 -1 2c-38,118 -98,226 -189,312l-8 7 -5 -10c-3,-7 -7,-14 -11,-21l-1 -2z"/>
   <path class="fil9" d="M3558 6155c36,124 97,238 193,327 4,-7 7,-14 11,-21l6 -12 10 9c128,132 295,189 478,189 182,0 349,-57 478,-189l9 -9 6 12c4,7 8,14 11,21 91,-85 151,-191 188,-308 -1,-4 -2,-7 -2,-11 -195,-82 -444,-131 -716,-131 -240,0 -462,38 -645,104 -7,5 -13,10 -21,15 -2,1 -4,3 -6,4z"/>
   <path class="fil1" d="M4698 6286c19,0 16,-4 26,-17 11,-14 54,-71 57,-80l-21 0c-4,12 -22,36 -31,49 -6,9 -28,40 -31,48zm-107 5c26,-1 21,-3 33,-17 7,-7 17,-22 25,-26 9,12 17,36 41,24 9,-4 32,-23 26,-38 -15,6 -19,28 -39,26 -7,-6 -12,-18 -14,-29l34 -39 -18 0 -54 61c-4,4 -8,7 -12,12 -5,6 -19,20 -22,26zm-97 1c22,1 46,-46 79,-56 0,1 1,1 1,2 0,1 0,1 0,2l4 15 11 0c3,-29 -5,-29 3,-37 7,-8 16,-17 32,-13 11,11 4,22 20,20 6,-19 -8,-41 -30,-34 -28,8 -114,78 -120,101zm-78 -9c-10,-43 -35,-29 -16,2 5,8 10,15 22,15 31,0 152,-98 152,-110 0,-13 -14,-1 -18,2l-92 71c-15,11 -24,20 -48,20zm-37 -71c-5,-2 -6,-1 -14,0 -1,22 4,34 -7,44 -41,37 -43,-7 -47,-11 -28,-22 -14,62 32,38 11,-6 151,-98 132,-110 -11,-7 -50,43 -83,57 -15,7 -9,-4 -13,-18zm-202 -35c-12,-1 -13,1 -18,7 -14,16 -34,48 -57,76 -4,5 -23,24 -16,32 12,11 28,-12 32,-17 15,-19 58,-74 59,-98zm-138 60l-1 -22c-25,-8 -12,27 -17,39 -3,7 -25,23 -40,20 -11,-13 -3,-30 -24,-25 -4,23 12,46 38,40 10,-3 43,-25 52,-31 22,-15 85,-58 90,-80 -13,-5 -32,16 -47,29 -8,7 -36,30 -51,30zm-116 58l0 4 2 11 10 2c2,-10 2,-24 -1,-31 -12,-2 -11,3 -11,14zm132 -96c-9,-21 -29,-41 -55,-23l-48 40c-4,3 -8,6 -12,9 -4,4 -6,7 -11,11l-74 60c-12,14 14,12 22,7l48 -40c14,-13 84,-77 100,-74 13,3 8,14 19,14 12,-1 -3,0 11,-4zm-215 37c-16,1 -10,10 -6,21 6,12 4,17 18,20 26,5 46,-33 60,-50 5,-7 11,-13 16,-20 12,-15 22,-26 31,-42 -31,-5 -53,60 -89,88 -26,21 -20,-6 -30,-17zm-86 68c17,1 19,-7 28,-18 14,-16 55,-77 66,-80 22,1 16,14 23,24 25,-5 -3,-37 -12,-40 -26,-8 -56,45 -75,69 -7,9 -27,35 -30,45z"/>
   <g>
    <g>
     <g>
      <path class="fil10" d="M4277 5671c54,27 90,64 114,110 23,46 33,100 33,161l0 5 -2 -4c-29,-52 -59,-97 -89,-133 -31,-37 -62,-64 -95,-79l-1 0 39 -60 1 0zm110 108c-1,-2 -2,-4 -3,-6l-17 78c1,1 2,3 4,5l16 -77zm-5 -9c-1,-2 -2,-3 -3,-5l-17 79c1,1 2,3 3,4l17 -78zm-5 -8c-1,-2 -2,-3 -3,-5l-17 79c1,2 2,3 3,5l17 -79zm-5 -8c-1,-1 -2,-3 -3,-4l-17 79c1,2 2,3 3,5l17 -80zm-5 -7c-1,-1 -2,-3 -4,-4l-17 80c2,1 3,3 4,4l17 -80zm-5 -7c-2,-1 -3,-2 -4,-4l-17 80c1,1 2,3 3,4l18 -80zm-6 -6c-1,-1 -2,-3 -3,-4l-17 80c1,1 2,2 3,4l17 -80zm-5 -6c-1,-1 -3,-2 -4,-4l-17 79c2,1 3,3 4,4l17 -79zm-6 -6c-1,-1 -2,-2 -3,-3l-17 78c1,1 2,3 3,4l17 -79zm-5 -5c-1,-1 -3,-2 -4,-3l-16 77c1,1 2,3 3,4l17 -78zm-6 -5c-1,-1 -2,-2 -4,-3l-16 76c1,1 2,3 4,4l16 -77zm-6 -5c-1,-1 -2,-2 -3,-3l-16 76c1,1 2,2 3,3l16 -76zm-5 -5c-2,-1 -3,-1 -4,-2l-16 74c1,1 2,2 4,4l16 -76zm-6 -4c-1,-1 -3,-2 -4,-3l-16 74c2,1 3,2 4,3l16 -74zm-6 -4c-1,-1 -2,-2 -4,-3l-15 73c1,1 2,2 3,3l16 -73zm-6 -4c-1,-1 -2,-2 -4,-2l-15 71c1,1 3,2 4,3l15 -72zm-6 -4c-1,-1 -2,-1 -4,-2l-15 71c2,0 3,1 4,2l15 -71zm-6 -3c-1,-1 -2,-2 -3,-2l-15 69c1,1 2,2 3,3l15 -70zm-6 -4c-1,0 -2,-1 -4,-2l-14 69c1,1 2,2 4,3l14 -70zm-6 -3c-1,-1 -2,-1 -4,-2l-14 68c1,1 2,2 4,3l14 -69zm140 262c0,-8 0,-16 0,-23l-4 16c2,2 3,4 4,7zm-1 -32c0,-5 -1,-9 -1,-14l-6 30c1,2 2,4 3,5l4 -21zm-2 -22c0,-4 -1,-8 -2,-12l-8 42c1,1 2,3 3,5l7 -35zm-3 -18c0,-4 -1,-7 -2,-11l-10 50c1,2 2,4 3,6l9 -45zm-3 -17c-1,-3 -1,-6 -2,-9l-12 57c1,2 2,4 3,5l11 -53zm-3 -14c-1,-3 -2,-6 -3,-9l-13 63c1,2 2,4 3,5l13 -59zm-4 -13c-1,-3 -2,-6 -3,-8l-14 67c1,2 2,4 3,5l14 -64zm-5 -12c0,-3 -1,-5 -2,-7l-15 70c1,2 2,4 3,5l14 -68zm-4 -11c-1,-3 -2,-5 -3,-7l-15 74c1,1 2,3 3,5l15 -72zm-4 -11c-1,-2 -2,-4 -3,-6l-17 76c1,2 3,3 4,5l16 -75zm-151 -58c0,0 1,0 2,1l1 -6 -3 5zm4 2c1,0 3,1 4,2l5 -24 -6 9 -3 13zm6 3c1,1 3,1 4,2l9 -43 -6 10 -7 31zm6 3c1,1 3,2 4,3l13 -62 -6 10 -11 49z"/>
      <path class="fil10" d="M4269 5565c64,1 118,18 166,47 48,30 89,72 125,124l3 4 -4 -3c-57,-32 -110,-58 -159,-77 -48,-19 -93,-29 -131,-29l-1 0 0 -66 1 0zm162 47c-2,-1 -4,-2 -6,-3l30 72c2,1 4,2 6,2l-30 -71zm-10 -5c-2,-1 -4,-2 -6,-4l32 74c1,1 3,1 5,2l-31 -72zm-9 -5c-2,-1 -4,-2 -6,-3l32 74c2,1 3,1 5,2l-31 -73zm-9 -5c-2,-1 -4,-2 -6,-2l32 74c2,1 4,2 5,2l-31 -74zm-9 -4c-2,-1 -4,-1 -6,-2l32 74c2,1 4,2 6,3l-32 -75zm-9 -3c-2,-1 -3,-2 -5,-3l31 75c2,0 4,1 6,2l-32 -74zm-8 -4c-2,0 -4,-1 -6,-2l32 74c2,1 3,2 5,2l-31 -74zm-9 -3c-1,0 -3,-1 -5,-1l31 73c2,1 4,1 6,2l-32 -74zm-8 -2c-2,-1 -3,-1 -5,-2l31 73c2,1 3,1 5,2l-31 -73zm-8 -3c-2,0 -4,0 -5,-1l30 72c2,1 4,1 6,2l-31 -73zm-8 -2c-2,0 -4,0 -5,-1l30 71c2,1 4,2 5,2l-30 -72zm-8 -1c-2,-1 -4,-1 -5,-1l30 70c2,0 3,1 5,2l-30 -71zm-8 -2c-2,0 -3,-1 -5,-1l30 70c1,0 3,1 5,1l-30 -70zm-8 -1c-1,-1 -3,-1 -5,-1l30 68c1,1 3,1 5,2l-30 -69zm-7 -2c-2,0 -4,0 -5,0l29 67c1,1 3,1 5,2l-29 -69zm-8 -1c-2,0 -3,0 -5,0l29 67c1,0 3,0 5,1l-29 -68zm-8 0c-1,0 -3,-1 -4,-1l28 66c1,0 3,1 5,1l-29 -66zm-7 -1c-2,0 -3,0 -5,0l28 65c2,0 3,0 5,1l-28 -66zm-7 0c-2,0 -3,-1 -5,-1l27 64c2,1 3,1 5,1l-27 -64zm-8 -1c-1,0 -3,0 -4,0l27 64c1,0 3,0 4,0l-27 -64zm280 166c-4,-7 -9,-13 -14,-19l6 14c3,2 6,3 8,5zm-19 -26c-3,-4 -7,-8 -10,-12l12 28 6 3 -8 -19zm-15 -18c-3,-3 -6,-6 -9,-9l17 38 6 3 -14 -32zm-13 -15c-3,-2 -6,-5 -8,-8l19 47 6 3 -17 -42zm-13 -12c-3,-3 -5,-5 -8,-7l23 53c2,1 4,2 6,3l-21 -49zm-12 -11c-2,-2 -5,-4 -7,-6l25 58c2,1 4,2 6,3l-24 -55zm-11 -10c-2,-2 -5,-3 -7,-5l27 62c2,1 4,2 5,3l-25 -60zm-11 -8c-2,-2 -4,-4 -7,-5l29 66c1,1 3,2 5,3l-27 -64zm-10 -8c-2,-1 -5,-3 -7,-4l29 68c2,1 4,2 6,3l-28 -67zm-10 -7c-3,-1 -5,-2 -7,-4l30 71c2,1 4,2 6,3l-29 -70zm-171 11c1,0 2,0 3,0l-3 -6 0 6zm6 0c1,0 3,0 4,0l-10 -23 0 11 6 12zm7 0c1,0 3,0 4,1l-17 -40 0 10 13 29zm7 1c2,0 3,0 5,0l-25 -57 0 10 20 47z"/>
      <path class="fil10" d="M4273 5620c63,8 115,30 160,65 44,35 80,81 110,136l3 5 -4 -3c-53,-38 -103,-70 -149,-94 -47,-24 -89,-39 -127,-43l-2 0 8 -66 1 0zm155 65c-2,-2 -3,-3 -5,-5l22 75c2,2 4,3 6,4l-23 -74zm-9 -7c-1,-1 -3,-2 -5,-4l23 76c2,1 3,3 5,4l-23 -76zm-8 -6c-2,-1 -4,-2 -6,-3l24 77c1,1 3,2 5,3l-23 -77zm-9 -5c-2,-1 -3,-2 -5,-3l23 77c2,1 4,2 5,3l-23 -77zm-8 -5c-2,-1 -4,-2 -5,-3l23 77c2,1 3,2 5,3l-23 -77zm-9 -5c-1,-1 -3,-2 -5,-2l24 77c1,1 3,2 5,3l-24 -78zm-8 -4c-1,-1 -3,-2 -5,-2l23 76c2,1 4,2 6,3l-24 -77zm-8 -4c-1,-1 -3,-1 -5,-2l23 76c2,1 4,2 5,3l-23 -77zm-8 -3c-1,-1 -3,-2 -5,-2l23 75c2,1 4,2 5,3l-23 -76zm-8 -4c-1,0 -3,-1 -5,-1l23 75c2,0 4,1 5,2l-23 -76zm-7 -2c-2,-1 -4,-2 -5,-2l22 74c2,1 4,2 5,2l-22 -74zm-8 -3c-2,-1 -3,-1 -5,-2l22 74c2,0 4,1 5,2l-22 -74zm-8 -3c-1,0 -3,-1 -4,-1l21 72c2,1 4,2 5,2l-22 -73zm-7 -2c-2,0 -3,-1 -5,-1l22 71c1,1 3,2 5,2l-22 -72zm-8 -2c-1,0 -3,-1 -4,-1l21 70c1,1 3,2 5,2l-22 -71zm-7 -2c-2,0 -3,0 -5,-1l21 70c2,0 3,1 5,1l-21 -70zm-8 -1c-1,0 -3,-1 -4,-1l20 68c2,1 4,1 5,2l-21 -69zm-7 -2c-1,0 -3,0 -5,0l21 67c1,1 3,1 5,2l-21 -69zm-7 -1c-2,0 -3,0 -5,-1l20 67c2,1 4,1 5,1l-20 -67zm-7 -1c-2,0 -3,0 -5,-1l20 66c2,1 3,1 5,1l-20 -66zm260 195c-4,-7 -8,-14 -12,-20l5 15c2,1 4,3 7,5zm-17 -28c-2,-4 -5,-8 -8,-12l9 28 5 4 -6 -20zm-12 -19c-3,-4 -5,-7 -8,-11l12 40 6 4 -10 -33zm-12 -16c-3,-3 -5,-6 -7,-9l14 48c2,2 4,3 6,4l-13 -43zm-11 -14c-3,-3 -5,-5 -7,-8l17 55 5 4 -15 -51zm-11 -12c-2,-3 -4,-5 -6,-7l18 61c2,1 4,2 6,3l-18 -57zm-10 -11c-2,-2 -4,-4 -6,-6l19 65c2,1 4,2 6,4l-19 -63zm-10 -10c-2,-2 -4,-3 -6,-5l21 68c2,2 3,3 5,4l-20 -67zm-9 -8c-2,-2 -4,-4 -6,-5l21 71c2,1 4,2 6,3l-21 -69zm-10 -8c-2,-2 -3,-3 -5,-5l22 74c2,1 3,2 5,3l-22 -72zm-170 -8c1,0 2,0 2,0l-1 -6 -1 6zm5 1c2,0 3,0 5,0l-8 -24 -1 11 4 13zm7 1c2,0 3,0 5,0l-13 -41 -1 10 9 31zm8 1c1,0 3,0 4,1l-18 -60 -1 11 15 48z"/>
      <path class="fil10" d="M4258 5605c43,-41 91,-63 142,-69 51,-6 106,4 163,25l4 1 -4 1c-59,9 -111,21 -156,37 -44,16 -81,36 -106,62l-1 1c-14,-19 -28,-39 -43,-58l1 0zm139 -66c-2,0 -4,0 -6,1l67 42c1,0 3,-1 5,-1l-66 -42zm-10 1c-2,1 -4,1 -6,2l68 42c2,0 4,-1 5,-1l-67 -43zm-9 2c-2,1 -4,1 -6,2l69 43c1,-1 3,-1 5,-2l-68 -43zm-9 2c-2,1 -4,1 -6,2l69 43c2,0 4,-1 5,-1l-68 -44zm-9 3c-2,0 -3,1 -5,1l69 44c2,-1 3,-1 5,-2l-69 -43zm-8 2c-2,1 -3,2 -5,2l69 44c2,-1 3,-2 5,-2l-69 -44zm-8 3c-1,1 -3,1 -5,2l69 43c2,0 3,-1 5,-1l-69 -44zm-7 3c-2,1 -3,2 -5,2l68 43c2,0 3,-1 5,-2l-68 -43zm-8 3c-1,1 -3,2 -4,3l68 42c1,-1 3,-1 4,-2l-68 -43zm-7 4c-1,0 -2,1 -4,2l67 42c2,0 3,-1 5,-2l-68 -42zm-6 3c-2,1 -3,2 -4,3l66 41c1,0 3,-1 4,-2l-66 -42zm-7 4c-1,1 -2,2 -4,2l66 42c1,-1 3,-2 4,-3l-66 -41zm-6 4c-1,1 -3,1 -4,2l65 41c1,-1 2,-2 4,-2l-65 -41zm-6 4c-1,1 -3,1 -4,2l64 40c1,0 3,-1 4,-2l-64 -40zm-6 4c-1,1 -3,1 -4,2l63 40c1,-1 3,-2 4,-2l-63 -40zm-6 4c-1,1 -2,2 -3,3l62 39c1,-1 2,-2 4,-3l-63 -39zm-5 4c-1,1 -3,2 -4,3l61 38c2,0 3,-1 4,-2l-61 -39zm-6 5c-1,0 -2,1 -3,2l60 38c1,-1 3,-1 4,-2l-61 -38zm-5 4c-1,1 -2,2 -3,3l59 37c1,-1 3,-1 4,-2l-60 -38zm-5 5c-1,0 -2,1 -3,2l59 37c1,0 2,-1 3,-2l-59 -37zm294 -42c-7,-2 -15,-5 -22,-7l14 9c2,-1 5,-1 8,-2zm-30 -10c-5,-1 -9,-2 -14,-3l26 16c2,0 4,-1 6,-1l-18 -12zm-21 -5c-4,-1 -8,-2 -12,-3l36 23c2,0 4,-1 6,-1l-30 -19zm-19 -4c-3,-1 -7,-1 -10,-2l43 28c2,-1 4,-1 6,-1l-39 -25zm-16 -3c-3,0 -7,0 -10,-1l50 32c2,-1 4,-1 6,-2l-46 -29zm-15 -1c-3,0 -6,-1 -9,-1l54 34c2,0 4,0 6,-1l-51 -32zm-14 -1c-3,0 -5,0 -8,0l58 36c2,0 4,0 6,-1l-56 -35zm-13 0c-2,0 -5,0 -7,0l61 38c2,0 4,0 6,-1l-60 -37zm-11 0c-3,0 -5,0 -8,0l64 41c2,-1 4,-1 6,-2l-62 -39zm-12 1c-2,0 -4,0 -6,0l65 42c2,-1 4,-1 6,-2l-65 -40zm-107 121c1,0 1,-1 2,-1l-5 -4 3 5zm4 -3c1,-1 2,-2 3,-3l-21 -13 7 9 11 7zm5 -5c1,-1 2,-2 3,-3l-37 -23 7 9 27 17zm5 -4c1,-1 2,-2 3,-3l-53 -33 7 9 43 27z"/>
      <path class="fil10" d="M4242 5629c12,-54 36,-97 70,-133 34,-35 77,-63 128,-84l5 -2 -4 4c-37,42 -70,83 -94,121 -25,38 -42,74 -48,106l0 1 -58 -12 1 -1zm70 -129c-2,2 -3,3 -4,4l66 -13 3 -4 -65 13zm-7 7c-1,2 -2,3 -3,4l67 -13c1,-1 2,-2 3,-4l-67 13zm-6 7c-1,2 -2,3 -3,4l68 -13 3 -4 -68 13zm-5 7c-1,2 -2,3 -3,4l68 -13c1,-1 2,-3 3,-4l-68 13zm-5 7c-1,1 -2,3 -3,4l69 -13c0,-2 1,-3 2,-4l-68 13zm-5 7c-1,1 -2,2 -2,4l68 -14c1,-1 2,-2 3,-3l-69 13zm-4 7c-1,1 -2,2 -3,3l69 -13c0,-1 1,-2 2,-4l-68 14zm-4 6c-1,1 -2,3 -2,4l67 -13c1,-1 2,-3 3,-4l-68 13zm-4 7c-1,1 -1,2 -2,4l67 -14c1,-1 2,-2 3,-3l-68 13zm-3 6c-1,2 -2,3 -2,4l66 -13c1,-1 2,-2 2,-4l-66 13zm-4 7c0,1 -1,2 -1,4l65 -13c1,-2 2,-3 3,-4l-67 13zm-3 6c0,1 -1,3 -1,4l65 -13c0,-1 1,-2 2,-4l-66 13zm-2 7c-1,1 -1,2 -2,3l64 -12c1,-1 2,-3 2,-4l-64 13zm-3 6c0,1 -1,2 -1,4l63 -13c1,-1 1,-2 2,-3l-64 12zm-2 6c-1,2 -1,3 -2,4l63 -12c0,-1 1,-3 2,-4l-63 12zm-3 7c0,1 0,2 -1,3l62 -12c0,-1 1,-2 1,-4l-62 13zm-2 6c0,1 0,2 -1,3l61 -11c1,-2 1,-3 2,-4l-62 12zm-1 6c-1,1 -1,2 -1,4l59 -12c1,-1 1,-3 2,-4l-60 12zm-2 6c0,1 -1,3 -1,4l59 -12c0,-1 1,-2 1,-3l-59 11zm-2 6c0,2 0,3 -1,4l59 -11c0,-2 1,-3 1,-4l-59 11zm191 -207c-6,2 -11,5 -17,7l12 -2c2,-2 3,-4 5,-5zm-25 11c-4,2 -7,4 -11,6l25 -5 4 -4 -18 3zm-18 9c-3,2 -6,4 -9,6l35 -7 4 -4 -30 5zm-15 9c-2,2 -5,3 -7,5l42 -8 3 -4 -38 7zm-13 9c-2,1 -4,3 -6,4l48 -9 4 -4 -46 9zm-11 8c-2,1 -4,3 -6,4l53 -10 4 -4 -51 10zm-10 8c-2,1 -4,3 -6,4l58 -11 3 -4 -55 11zm-10 7c-1,2 -3,3 -4,5l60 -12 3 -4 -59 11zm-8 8c-1,1 -3,3 -4,4l63 -12 3 -4 -62 12zm-7 7c-2,1 -3,3 -5,4l65 -12 3 -4 -63 12zm-22 146l0 -1 -4 1 4 0zm1 -4c0,-1 0,-2 0,-3l-20 4 9 1 11 -2zm1 -6c0,-1 1,-2 1,-4l-36 7 8 2 27 -5zm2 -6c0,-1 1,-3 1,-4l-52 10 8 2 43 -8z"/>
     </g>
     <g>
      <path class="fil10" d="M4273 5671c-53,27 -90,64 -113,110 -24,46 -34,100 -34,161l0 5 3 -4c29,-52 58,-97 89,-133 30,-37 61,-64 94,-79l1 0 -39 -60 -1 0zm-110 108c1,-2 2,-4 4,-6l16 78c-1,1 -2,3 -3,5l-17 -77zm5 -9c1,-2 2,-3 3,-5l17 79c-1,1 -2,3 -3,4l-17 -78zm5 -8c1,-2 2,-3 3,-5l17 79c-1,2 -2,3 -3,5l-17 -79zm5 -8c1,-1 3,-3 4,-4l17 79c-1,2 -3,3 -4,5l-17 -80zm6 -7c1,-1 2,-3 3,-4l17 80c-1,1 -2,3 -3,4l-17 -80zm5 -7c1,-1 2,-2 3,-4l17 80c-1,1 -2,3 -3,4l-17 -80zm5 -6c1,-1 2,-3 4,-4l17 80c-2,1 -3,2 -4,4l-17 -80zm6 -6c1,-1 2,-2 3,-4l17 79c-1,1 -2,3 -4,4l-16 -79zm5 -6c1,-1 2,-2 4,-3l16 78c-1,1 -2,3 -3,4l-17 -79zm6 -5c1,-1 2,-2 3,-3l17 77c-1,1 -3,3 -4,4l-16 -78zm5 -5c1,-1 3,-2 4,-3l16 76c-1,1 -2,3 -3,4l-17 -77zm6 -5c1,-1 2,-2 4,-3l16 76c-1,1 -3,2 -4,3l-16 -76zm6 -5c1,-1 2,-1 3,-2l16 74c-1,1 -2,2 -3,4l-16 -76zm5 -4c2,-1 3,-2 4,-3l16 74c-1,1 -3,2 -4,3l-16 -74zm6 -4c2,-1 3,-2 4,-3l15 73c-1,1 -2,2 -3,3l-16 -73zm6 -4c1,-1 3,-2 4,-2l15 71c-1,1 -2,2 -3,3l-16 -72zm6 -4c1,-1 3,-1 4,-2l15 71c-1,0 -3,1 -4,2l-15 -71zm6 -3c1,-1 3,-2 4,-2l15 69c-2,1 -3,2 -4,3l-15 -70zm6 -4c1,0 3,-1 4,-2l15 69c-2,1 -3,2 -4,3l-15 -70zm6 -3c1,-1 3,-1 4,-2l14 68c-1,1 -2,2 -3,3l-15 -69zm-140 262c0,-8 0,-16 1,-23l3 16c-1,2 -3,4 -4,7zm1 -32c1,-5 1,-9 1,-14l7 30c-1,2 -2,4 -3,5l-5 -21zm2 -22c1,-4 1,-8 2,-12l9 42c-1,1 -2,3 -3,5l-8 -35zm3 -18c1,-4 1,-7 2,-11l11 50c-1,2 -2,4 -3,6l-10 -45zm3 -17c1,-3 2,-6 2,-9l13 57c-1,2 -2,4 -3,5l-12 -53zm4 -14c1,-3 1,-6 2,-9l14 63c-1,2 -2,4 -3,5l-13 -59zm4 -13c1,-3 1,-6 2,-8l15 67c-1,2 -2,4 -3,5l-14 -64zm4 -12c1,-3 2,-5 3,-7l15 70c-1,2 -2,4 -3,5l-15 -68zm4 -11c1,-3 2,-5 3,-7l16 74c-1,1 -2,3 -3,5l-16 -72zm5 -11c1,-2 2,-4 3,-6l16 76c-1,2 -2,3 -3,5l-16 -75zm151 -58c-1,0 -2,0 -2,1l-2 -6 4 5zm-5 2c-1,0 -2,1 -3,2l-6 -24 7 9 2 13zm-6 3c-1,1 -2,1 -3,2l-10 -43 7 10 6 31zm-6 3c-1,1 -2,2 -3,3l-14 -62 7 10 10 49z"/>
      <path class="fil10" d="M4281 5565c-63,1 -118,18 -166,47 -48,30 -89,72 -125,124l-3 4 5 -3c56,-32 109,-58 158,-77 49,-19 93,-29 131,-29l1 0 0 -66 -1 0zm-161 47c2,-1 4,-2 6,-3l-31 72c-2,1 -4,2 -6,2l31 -71zm9 -5c2,-1 4,-2 6,-4l-31 74c-2,1 -4,1 -6,2l31 -72zm9 -5c2,-1 4,-2 6,-3l-31 74c-2,1 -4,1 -6,2l31 -73zm9 -5c2,-1 4,-2 6,-2l-32 74c-1,1 -3,2 -5,2l31 -74zm9 -4c2,-1 4,-1 6,-2l-32 74c-2,1 -3,2 -5,3l31 -75zm9 -3c2,-1 4,-2 6,-3l-32 75c-2,0 -4,1 -6,2l32 -74zm9 -4c1,0 3,-1 5,-2l-32 74c-1,1 -3,2 -5,2l32 -74zm8 -3c2,0 4,-1 5,-1l-31 73c-2,1 -4,1 -5,2l31 -74zm8 -2c2,-1 4,-1 6,-2l-31 73c-2,1 -4,1 -6,2l31 -73zm9 -3c1,0 3,0 5,-1l-31 72c-2,1 -4,1 -5,2l31 -73zm8 -2c1,0 3,0 5,-1l-31 71c-1,1 -3,2 -5,2l31 -72zm8 -1c1,-1 3,-1 5,-1l-30 70c-2,0 -4,1 -6,2l31 -71zm7 -2c2,0 4,-1 5,-1l-29 70c-2,0 -4,1 -5,1l29 -70zm8 -1c2,-1 3,-1 5,-1l-29 68c-2,1 -4,1 -5,2l29 -69zm8 -2c1,0 3,0 5,0l-29 67c-2,1 -4,1 -5,2l29 -69zm7 -1c2,0 4,0 5,0l-28 67c-2,0 -4,0 -5,1l28 -68zm8 0c2,0 3,-1 5,-1l-28 66c-2,0 -4,1 -5,1l28 -66zm7 -1c2,0 3,0 5,0l-28 65c-1,0 -3,0 -5,1l28 -66zm8 0c1,0 3,-1 4,-1l-27 64c-2,1 -3,1 -5,1l28 -64zm7 -1c2,0 3,0 5,0l-27 64c-2,0 -4,0 -5,0l27 -64zm-280 166c5,-7 9,-13 14,-19l-6 14c-3,2 -5,3 -8,5zm20 -26c3,-4 6,-8 9,-12l-12 28 -6 3 9 -19zm14 -18c3,-3 6,-6 9,-9l-16 38 -6 3 13 -32zm14 -15c2,-2 5,-5 8,-8l-20 47 -6 3 18 -42zm12 -12c3,-3 5,-5 8,-7l-23 53c-2,1 -4,2 -6,3l21 -49zm12 -11c3,-2 5,-4 7,-6l-25 58c-1,1 -3,2 -5,3l23 -55zm11 -10c3,-2 5,-3 7,-5l-26 62c-2,1 -4,2 -6,3l25 -60zm11 -8c2,-2 5,-4 7,-5l-28 66c-2,1 -4,2 -6,3l27 -64zm11 -8c2,-1 4,-3 6,-4l-29 68c-2,1 -4,2 -6,3l29 -67zm10 -7c2,-1 4,-2 6,-4l-30 71c-2,1 -4,2 -6,3l30 -70zm170 11c-1,0 -2,0 -3,0l3 -6 0 6zm-5 0c-2,0 -3,0 -5,0l10 -23 0 11 -5 12zm-7 0c-2,0 -4,0 -5,1l17 -40 0 10 -12 29zm-8 1c-1,0 -3,0 -5,0l25 -57 0 10 -20 47z"/>
      <path class="fil10" d="M4278 5620c-63,8 -116,30 -161,65 -44,35 -80,81 -110,136l-3 5 5 -3c52,-38 102,-70 149,-94 46,-24 89,-39 127,-43l1 0 -7 -66 -1 0zm-156 65c2,-2 4,-3 6,-5l-23 75c-2,2 -4,3 -5,4l22 -74zm9 -7c2,-1 4,-2 5,-4l-23 76c-1,1 -3,3 -5,4l23 -76zm9 -6c1,-1 3,-2 5,-3l-23 77c-2,1 -4,2 -6,3l24 -77zm8 -5c2,-1 4,-2 6,-3l-24 77c-2,1 -3,2 -5,3l23 -77zm9 -5c1,-1 3,-2 5,-3l-24 77c-1,1 -3,2 -5,3l24 -77zm8 -5c2,-1 3,-2 5,-2l-23 77c-2,1 -4,2 -6,3l24 -78zm8 -4c2,-1 3,-2 5,-2l-23 76c-2,1 -4,2 -5,3l23 -77zm8 -4c2,-1 3,-1 5,-2l-23 76c-2,1 -3,2 -5,3l23 -77zm8 -3c2,-1 3,-2 5,-2l-23 75c-2,1 -3,2 -5,3l23 -76zm8 -4c2,0 3,-1 5,-1l-23 75c-2,0 -3,1 -5,2l23 -76zm8 -2c1,-1 3,-2 5,-2l-23 74c-2,1 -3,2 -5,2l23 -74zm7 -3c2,-1 4,-1 5,-2l-22 74c-2,0 -3,1 -5,2l22 -74zm8 -3c2,0 3,-1 5,-1l-22 72c-2,1 -3,2 -5,2l22 -73zm8 -2c1,0 3,-1 4,-1l-21 71c-2,1 -4,2 -5,2l22 -72zm7 -2c2,0 3,-1 5,-1l-21 70c-2,1 -4,2 -5,2l21 -71zm8 -2c1,0 3,0 4,-1l-21 70c-1,0 -3,1 -5,1l22 -70zm7 -1c1,0 3,-1 5,-1l-21 68c-2,1 -3,1 -5,2l21 -69zm7 -2c2,0 3,0 5,0l-21 67c-1,1 -3,1 -4,2l20 -69zm8 -1c1,0 3,0 4,-1l-20 67c-2,1 -3,1 -5,1l21 -67zm7 -1c1,0 3,0 4,-1l-20 66c-1,1 -3,1 -4,1l20 -66zm-260 195c3,-7 7,-14 11,-20l-4 15c-3,1 -5,3 -7,5zm16 -28c3,-4 5,-8 8,-12l-9 28 -5 4 6 -20zm13 -19c2,-4 5,-7 7,-11l-12 40 -5 4 10 -33zm12 -16c2,-3 4,-6 7,-9l-15 48c-2,2 -4,3 -6,4l14 -43zm11 -14c2,-3 4,-5 6,-8l-16 55 -6 4 16 -51zm10 -12c2,-3 5,-5 7,-7l-19 61c-2,1 -3,2 -5,3l17 -57zm10 -11c2,-2 5,-4 7,-6l-20 65c-2,1 -4,2 -6,4l19 -63zm10 -10c2,-2 4,-3 6,-5l-21 68c-1,2 -3,3 -5,4l20 -67zm10 -8c2,-2 4,-4 6,-5l-22 71c-2,1 -4,2 -5,3l21 -69zm9 -8c2,-2 4,-3 6,-5l-22 74c-2,1 -4,2 -6,3l22 -72zm170 -8c0,0 -1,0 -2,0l2 -6 0 6zm-5 1c-1,0 -3,0 -4,0l7 -24 1 11 -4 13zm-7 1c-1,0 -3,0 -5,0l13 -41 1 10 -9 31zm-7 1c-2,0 -3,0 -5,1l18 -60 1 11 -14 48z"/>
      <path class="fil10" d="M4292 5605c-43,-41 -91,-63 -142,-69 -51,-6 -106,4 -163,25l-4 1 5 1c58,9 111,21 155,37 45,16 81,36 106,62l1 1c15,-19 29,-39 43,-58l-1 0zm-139 -66c3,0 5,0 7,1l-67 42c-2,0 -4,-1 -6,-1l66 -42zm10 1c2,1 4,1 6,2l-68 42c-1,0 -3,-1 -5,-1l67 -43zm10 2c2,1 4,1 5,2l-68 43c-2,-1 -4,-1 -6,-2l69 -43zm9 2c1,1 3,1 5,2l-69 43c-2,0 -3,-1 -5,-1l69 -44zm8 3c2,0 4,1 5,1l-69 44c-1,-1 -3,-1 -5,-2l69 -43zm8 2c2,1 4,2 5,2l-69 44c-1,-1 -3,-2 -5,-2l69 -44zm8 3c2,1 3,1 5,2l-69 43c-1,0 -3,-1 -5,-1l69 -44zm8 3c1,1 3,2 4,2l-68 43c-1,0 -3,-1 -5,-2l69 -43zm7 3c1,1 3,2 4,3l-67 42c-2,-1 -3,-1 -5,-2l68 -43zm7 4c1,0 3,1 4,2l-67 42c-1,0 -3,-1 -4,-2l67 -42zm7 3c1,1 2,2 4,3l-66 41c-2,0 -3,-1 -5,-2l67 -42zm6 4c1,1 3,2 4,2l-65 42c-2,-1 -3,-2 -5,-3l66 -41zm6 4c2,1 3,1 4,2l-64 41c-2,-1 -3,-2 -5,-2l65 -41zm7 4c1,1 2,1 3,2l-63 40c-2,0 -3,-1 -5,-2l65 -40zm5 4c2,1 3,1 4,2l-63 40c-1,-1 -2,-2 -4,-2l63 -40zm6 4c1,1 2,2 4,3l-62 39c-2,-1 -3,-2 -4,-3l62 -39zm6 4c1,1 2,2 3,3l-61 38c-1,0 -3,-1 -4,-2l62 -39zm5 5c1,0 2,1 3,2l-60 38c-1,-1 -2,-1 -4,-2l61 -38zm5 4c1,1 2,2 4,3l-60 37c-1,-1 -2,-1 -4,-2l60 -38zm5 5c1,0 3,1 4,2l-59 37c-1,0 -3,-1 -4,-2l59 -37zm-293 -42c7,-2 14,-5 21,-7l-13 9c-3,-1 -6,-1 -8,-2zm30 -10c4,-1 9,-2 13,-3l-26 16c-2,0 -4,-1 -6,-1l19 -12zm21 -5c4,-1 8,-2 12,-3l-36 23c-2,0 -4,-1 -6,-1l30 -19zm18 -4c4,-1 7,-1 11,-2l-44 28c-2,-1 -4,-1 -6,-1l39 -25zm17 -3c3,0 6,0 9,-1l-49 32c-2,-1 -4,-1 -6,-2l46 -29zm15 -1c2,0 5,-1 8,-1l-54 34c-2,0 -4,0 -6,-1l52 -32zm13 -1c3,0 6,0 8,0l-58 36c-2,0 -4,0 -6,-1l56 -35zm13 0c3,0 5,0 8,0l-62 38c-2,0 -4,0 -6,-1l60 -37zm12 0c2,0 5,0 7,0l-64 41c-2,-1 -4,-1 -5,-2l62 -39zm11 1c2,0 4,0 7,0l-66 42c-2,-1 -4,-1 -6,-2l65 -40zm107 121c0,0 -1,-1 -2,-1l6 -4 -4 5zm-3 -3c-1,-1 -2,-2 -4,-3l21 -13 -6 9 -11 7zm-5 -5c-2,-1 -3,-2 -4,-3l37 -23 -7 9 -26 17zm-6 -4c-1,-1 -2,-2 -3,-3l53 -33 -7 9 -43 27z"/>
      <path class="fil10" d="M4309 5629c-13,-54 -37,-97 -71,-133 -34,-35 -77,-63 -127,-84l-5 -2 3 4c38,42 70,83 95,121 24,38 41,74 48,106l0 1 57 -12 0 -1zm-70 -129c1,2 2,3 4,4l-67 -13 -3 -4 66 13zm6 7c1,2 3,3 4,4l-68 -13c-1,-1 -2,-2 -3,-4l67 13zm6 7c1,2 2,3 3,4l-68 -13 -3 -4 68 13zm6 7c1,2 2,3 2,4l-68 -13c-1,-1 -2,-3 -3,-4l69 13zm5 7c0,1 1,3 2,4l-68 -13c-1,-2 -2,-3 -3,-4l69 13zm4 7c1,1 2,2 3,4l-69 -14c-1,-1 -1,-2 -2,-3l68 13zm5 7c0,1 1,2 2,3l-68 -13c-1,-1 -2,-2 -3,-4l69 14zm4 6c0,1 1,3 2,4l-68 -13c-1,-1 -2,-3 -2,-4l68 13zm3 7c1,1 2,2 2,4l-67 -14c-1,-1 -1,-2 -2,-3l67 13zm4 6c0,2 1,3 2,4l-67 -13c-1,-1 -1,-2 -2,-4l67 13zm3 7c1,1 1,2 2,4l-66 -13c-1,-2 -1,-3 -2,-4l66 13zm3 6c0,1 1,3 2,4l-65 -13c-1,-1 -2,-2 -2,-4l65 13zm3 7c0,1 1,2 1,3l-64 -12c-1,-1 -1,-3 -2,-4l65 13zm2 6c1,1 1,2 2,4l-64 -13c0,-1 -1,-2 -1,-3l63 12zm3 6c0,2 1,3 1,4l-62 -12c-1,-1 -2,-3 -2,-4l63 12zm2 7c0,1 1,2 1,3l-61 -12c-1,-1 -2,-2 -2,-4l62 13zm2 6c0,1 1,2 1,3l-61 -11c0,-2 -1,-3 -1,-4l61 12zm2 6c0,1 0,2 1,4l-60 -12c-1,-1 -1,-3 -2,-4l61 12zm1 6c1,1 1,3 1,4l-59 -12c0,-1 -1,-2 -1,-3l59 11zm2 6c0,2 1,3 1,4l-59 -11c0,-2 0,-3 -1,-4l59 11zm-190 -207c5,2 11,5 16,7l-12 -2c-1,-2 -3,-4 -4,-5zm24 11c4,2 8,4 11,6l-25 -5 -3 -4 17 3zm18 9c3,2 6,4 9,6l-35 -7 -3 -4 29 5zm15 9c3,2 5,3 8,5l-43 -8 -3 -4 38 7zm13 9c2,1 4,3 7,4l-49 -9 -3 -4 45 9zm11 8c2,1 4,3 6,4l-53 -10 -3 -4 50 10zm11 8c1,1 3,3 5,4l-57 -11 -4 -4 56 11zm9 7c2,2 3,3 5,5l-61 -12 -3 -4 59 11zm8 8c2,1 3,3 5,4l-63 -12 -4 -4 62 12zm8 7c1,1 3,3 4,4l-65 -12 -3 -4 64 12zm22 146l-1 -1 5 1 -4 0zm-1 -4c-1,-1 -1,-2 -1,-3l20 4 -8 1 -11 -2zm-2 -6c0,-1 0,-2 -1,-4l36 7 -8 2 -27 -5zm-2 -6c0,-1 0,-3 -1,-4l53 10 -9 2 -43 -8z"/>
     </g>
    </g>
    <path class="fil11" d="M4264 5434l-5 -60 -8 446 -13 266 21 24c1,-88 12,-159 12,-246l-7 -430z"/>
    <path class="fil1" d="M4279 6159c2,-57 -19,-86 -45,-109 0,64 -1,128 -1,191 0,52 0,104 0,155 -1,26 11,45 33,61 27,19 61,28 105,24 5,-22 -3,-32 -9,-43 -50,-1 -86,-11 -83,-42 -2,0 -3,0 -5,0 -4,-30 -8,-60 -12,-90 6,-49 12,-96 17,-147z"/>
    <polygon class="fil12" points="4238,6381 4269,6381 4269,6397 4238,6397 "/>
   </g>
   <path class="fil1" d="M4951 5582c1,2 1,5 0,7l0 0 0 0c0,6 -1,12 -1,18l0 6 -5 2c-27,10 -54,21 -82,29l-7 2 -2 -7c-12,-31 -15,-63 -8,-95 13,-57 55,-102 100,-136l11 -8 1 13c1,5 2,9 2,13l0 1 0 1c-1,7 -3,11 -8,16 -1,0 -1,1 -2,1 0,3 0,8 0,11 0,4 1,8 0,11 -1,3 -1,5 -1,7 0,6 1,11 1,17 1,9 3,19 5,28 1,7 3,14 4,21 1,6 2,12 2,18l0 4 -3 2c-7,6 -9,8 -7,18 0,0 0,0 0,0z"/>
   <path class="fil13" d="M4942 5607c1,-5 1,-11 2,-18 0,-6 0,0 -1,-6 -2,-14 2,-18 10,-25 0,-16 -8,-46 -10,-66 -1,-6 -2,-12 -2,-18 0,-11 2,-5 1,-17 -2,-26 8,-14 10,-30 0,-3 -1,-7 -1,-13 -79,59 -123,135 -90,222 27,-8 54,-19 81,-29z"/>
   <path class="fil14" d="M3796 4468l-60 -86 12 -9 49 72 30 -21 11 15 -42 29zm106 -70l-14 9 -18 -17 -24 15 7 24 -13 8 -32 -105 13 -8 81 74zm-45 -21l-29 -28 12 39 17 -11zm52 19l-46 -95 20 -10 43 59 -20 -70 20 -10 46 95 -12 6 -37 -75 24 81 -13 7 -49 -69 36 75 -12 6zm77 -36l-35 -100 22 -7c9,-3 14,-5 17,-4 5,0 9,2 14,6 4,4 8,10 10,18 2,6 3,12 3,16 0,5 -1,9 -2,12 -2,3 -3,6 -6,7 -3,2 -7,5 -13,7l-9 3 13 38 -14 4zm-15 -87l10 28 7 -3c6,-2 9,-3 11,-5 1,-2 2,-4 2,-6 0,-3 0,-6 -1,-9 -1,-3 -3,-6 -5,-8 -2,-2 -5,-3 -7,-3 -2,1 -5,2 -10,3l-7 3zm56 -39l15 -3 12 56c1,9 3,15 4,17 1,4 4,7 6,9 3,3 7,3 11,2 4,-1 6,-2 8,-5 1,-3 2,-6 2,-10 -1,-4 -2,-10 -4,-18l-12 -57 14 -3 12 54c3,13 4,22 5,27 0,5 0,10 -2,14 -1,4 -3,7 -6,10 -3,3 -8,5 -13,6 -7,2 -12,1 -16,0 -4,-2 -8,-4 -10,-7 -3,-3 -5,-7 -7,-11 -2,-5 -4,-14 -7,-26l-12 -55zm94 88l-17 -104 14 -2 41 65 -11 -70 13 -2 17 104 -15 2 -40 -64 11 69 -13 2zm105 -50l-1 -18 32 -1 1 42c-3,5 -7,9 -13,12 -6,4 -11,6 -17,6 -8,0 -15,-2 -20,-6 -6,-5 -11,-11 -14,-20 -3,-8 -5,-18 -5,-28 0,-11 1,-21 4,-30 3,-8 7,-15 13,-20 5,-3 10,-5 17,-6 9,0 16,3 22,8 5,5 8,13 10,23l-14 4c-2,-5 -4,-9 -7,-12 -2,-3 -6,-4 -10,-4 -7,0 -12,3 -15,9 -4,6 -5,15 -5,27 1,12 3,22 7,28 4,6 9,9 15,9 3,0 6,-1 9,-3 3,-2 6,-4 8,-7l-1 -13 -16 0zm73 6l15 -1c0,7 1,12 4,16 2,3 5,5 10,6 4,0 8,-1 11,-4 2,-3 4,-6 4,-10 0,-2 0,-4 -1,-6 -1,-2 -2,-4 -5,-5 -1,-1 -5,-3 -11,-6 -7,-3 -12,-7 -15,-12 -4,-6 -6,-13 -5,-22 1,-5 2,-10 5,-14 2,-5 5,-8 9,-10 5,-2 9,-3 15,-3 9,1 16,5 20,11 4,6 5,14 5,24l-15 -1c0,-5 -1,-9 -3,-12 -2,-2 -5,-4 -9,-4 -4,0 -7,1 -10,3 -2,1 -3,3 -3,6 0,3 0,5 2,7 1,2 6,5 12,8 7,3 12,6 15,9 4,3 6,7 7,12 2,4 2,10 2,17 -1,6 -2,11 -5,16 -3,5 -7,9 -11,11 -4,2 -10,3 -16,2 -9,0 -16,-4 -20,-11 -5,-6 -7,-15 -7,-27zm68 41l23 -103 52 11 -4 18 -38 -8 -5 23 36 7 -4 18 -35 -8 -7 28 40 9 -4 17 -54 -12zm67 15l28 -100 14 4 -23 83 35 10 -5 17 -49 -14zm119 43l-15 -6 4 -25 -27 -11 -15 20 -14 -6 66 -87 14 6 -13 109zm-9 -49l5 -40 -23 32 18 8zm24 56l38 -79 -19 -9 7 -16 52 25 -8 16 -19 -9 -38 79 -13 -7zm90 51l-14 -8 8 -24 -25 -15 -18 17 -13 -8 79 -75 14 8 -31 105zm-1 -50l12 -38 -29 28 17 10zm7 55l61 -87 11 8 -16 75 41 -58 11 8 -61 87 -12 -9 16 -73 -40 56 -11 -7z"/>
   <path class="fil14" d="M3710 6641l65 -94 14 10 -28 42 58 -22 19 14 -52 18 -11 77 -19 -13 11 -58 -23 8 -19 28 -15 -10zm79 54l56 -100 15 9 -21 39 30 17 21 -39 16 8 -56 100 -15 -9 24 -43 -30 -17 -24 44 -16 -9zm149 76l-18 -8 5 -27 -32 -15 -17 20 -17 -8 80 -88 17 8 -18 118zm-10 -55l8 -43 -29 33 21 10zm71 30l7 -18 36 12 -15 43c-5,3 -12,5 -20,6 -7,2 -15,1 -21,-1 -9,-3 -16,-8 -20,-15 -5,-7 -8,-16 -8,-26 0,-10 2,-20 5,-30 4,-11 10,-21 16,-28 7,-8 14,-13 23,-15 7,-2 14,-1 22,2 10,3 17,9 21,16 3,8 4,17 3,27l-18 -1c0,-6 0,-11 -3,-15 -2,-4 -5,-7 -10,-9 -7,-2 -14,-1 -20,3 -7,5 -12,13 -16,25 -5,13 -6,23 -4,31 2,8 7,13 14,15 4,2 7,2 11,1 5,0 8,-1 12,-3l4 -14 -19 -6zm47 -1c2,-11 6,-21 10,-28 3,-5 7,-10 11,-13 4,-4 9,-7 13,-8 6,-2 13,-2 19,-1 13,3 22,10 27,22 6,12 7,27 3,45 -4,18 -11,32 -21,40 -9,9 -20,12 -33,9 -13,-3 -22,-10 -27,-22 -5,-11 -6,-26 -2,-44zm18 3c-3,13 -3,23 0,30 3,8 8,12 15,14 7,1 13,-1 19,-6 6,-6 10,-15 13,-28 3,-13 3,-23 0,-30 -3,-7 -8,-12 -15,-13 -8,-2 -14,0 -20,6 -5,5 -10,14 -12,27zm66 73l10 -114 26 2 9 79 22 -76 27 2 -10 114 -16 -2 7 -89 -25 88 -16 -2 -10 -91 -8 90 -16 -1zm135 7l-4 -114 26 -1 19 78 12 -79 27 -1 4 114 -16 1 -4 -90 -13 90 -17 1 -21 -89 3 90 -16 0zm83 -119l17 -3 10 61c2,10 3,16 4,19 2,4 4,8 7,10 4,2 8,3 12,2 5,0 9,-2 11,-5 2,-3 3,-7 3,-11 -1,-4 -1,-10 -3,-19l-10 -62 17 -3 10 59c2,13 3,23 3,29 0,6 0,11 -2,15 -2,4 -5,8 -9,11 -4,3 -9,5 -16,6 -8,1 -14,1 -19,-1 -5,-2 -9,-4 -12,-8 -3,-3 -5,-7 -7,-12 -2,-6 -4,-15 -6,-28l-10 -60zm105 97l-31 -109 58 -17 5 19 -40 11 7 26 35 -10 5 19 -35 10 13 47 -17 4zm140 -44l-18 6 -16 -22 -33 12 2 27 -18 6 -6 -119 18 -6 71 96zm-46 -32l-25 -36 3 44 22 -8zm55 28l-51 -102 16 -8 22 46 10 -62 21 -10 -10 54 62 48 -20 10 -46 -38 -4 24 15 31 -15 7zm145 -79l-16 10 -20 -19 -30 19 8 26 -16 9 -31 -115 16 -9 89 79zm-51 -22l-32 -30 12 42 20 -12zm68 10l-54 -78 -21 15 -11 -16 57 -39 11 16 -21 14 53 78 -14 10z"/>
  </g>
 </g>
</svg>
